<svg xmlns="http://www.w3.org/2000/svg" viewBox="0 0 36 36"><path fill-rule="evenodd" d="M33.483 13.662 18.421 6.1a.938.938 0 0 0-.842 0L2.517 13.662a.938.938 0 0 0 .003 1.677l1.355.675V27.6A2.817 2.817 0 0 0 2 30.25v3.812c0 .518.42.938.938.938h3.75c.517 0 .937-.42.937-.938V30.25a2.817 2.817 0 0 0-1.875-2.651V16.948l1.938.964V22c0 1.845 1.136 3.543 3.2 4.781 1.915 1.149 4.44 1.782 7.112 1.782 5.58 0 10.313-2.786 10.313-6.563v-4.088l5.167-2.573a.938.938 0 0 0 .003-1.677zM5.75 33.125H3.875V30.25c0-.515.417-.934.932-.937h.006a.94.94 0 0 1 .937.937v2.875zM26.438 22c0 2.54-3.864 4.688-8.438 4.688-4.574 0-8.437-2.147-8.437-4.688v-3.154l8.02 3.993a.937.937 0 0 0 .835 0l8.02-3.993V22zM18 20.953 5.034 14.497 18 7.987l12.966 6.51L18 20.953z"/></svg>