<svg xmlns="http://www.w3.org/2000/svg" xmlns:xlink="http://www.w3.org/1999/xlink" width="500" zoomAndPan="magnify" viewBox="0 0 375 374.999991" height="500" preserveAspectRatio="xMidYMid meet" version="1.0"><defs><clipPath id="441d1f5ddb"><path d="M 23.714844 23.714844 L 351.464844 23.714844 L 351.464844 351.464844 L 23.714844 351.464844 Z M 23.714844 23.714844 " clip-rule="nonzero"/></clipPath><clipPath id="292b4f4517"><path d="M 22.335938 22.335938 L 352.664062 22.335938 L 352.664062 352.664062 L 22.335938 352.664062 Z M 22.335938 22.335938 " clip-rule="nonzero"/></clipPath><clipPath id="ac66e2b693"><path d="M 187.5 352.664062 C 143.402344 352.664062 101.878906 335.503906 70.722656 304.277344 C 39.496094 273.121094 22.335938 231.597656 22.335938 187.5 C 22.335938 143.402344 39.496094 101.878906 70.722656 70.722656 C 101.878906 39.496094 143.402344 22.335938 187.5 22.335938 C 231.597656 22.335938 273.121094 39.496094 304.277344 70.722656 C 335.503906 101.945312 352.664062 143.402344 352.664062 187.5 C 352.664062 231.597656 335.503906 273.121094 304.277344 304.277344 C 273.121094 335.503906 231.597656 352.664062 187.5 352.664062 Z M 187.5 32.234375 C 146.042969 32.234375 107.03125 48.410156 77.71875 77.71875 C 48.410156 107.03125 32.234375 146.042969 32.234375 187.5 C 32.234375 228.957031 48.410156 267.96875 77.71875 297.28125 C 107.03125 326.589844 146.042969 342.765625 187.5 342.765625 C 228.957031 342.765625 267.96875 326.589844 297.28125 297.28125 C 326.589844 267.96875 342.765625 228.957031 342.765625 187.5 C 342.765625 146.042969 326.589844 107.03125 297.28125 77.71875 C 267.96875 48.410156 228.957031 32.234375 187.5 32.234375 Z M 187.5 32.234375 " clip-rule="nonzero"/></clipPath><clipPath id="d6738853e2"><path d="M 147 125.578125 L 182.101562 125.578125 L 182.101562 309.445312 L 147 309.445312 Z M 147 125.578125 " clip-rule="nonzero"/></clipPath><clipPath id="e8298975c1"><path d="M 192.695312 126.332031 L 228 126.332031 L 228 310.199219 L 192.695312 310.199219 Z M 192.695312 126.332031 " clip-rule="nonzero"/></clipPath><clipPath id="18ff6bcfd4"><path d="M 159.613281 64.609375 L 215.707031 64.609375 L 215.707031 120.703125 L 159.613281 120.703125 Z M 159.613281 64.609375 " clip-rule="nonzero"/></clipPath></defs><g clip-path="url(#441d1f5ddb)"><path fill="#ffffff" d="M 351.464844 187.589844 C 351.464844 190.273438 351.398438 192.953125 351.269531 195.632812 C 351.136719 198.3125 350.941406 200.984375 350.675781 203.652344 C 350.414062 206.324219 350.085938 208.984375 349.691406 211.636719 C 349.300781 214.289062 348.839844 216.929688 348.316406 219.5625 C 347.792969 222.191406 347.207031 224.808594 346.554688 227.410156 C 345.902344 230.011719 345.1875 232.59375 344.410156 235.160156 C 343.632812 237.726562 342.789062 240.273438 341.886719 242.800781 C 340.984375 245.324219 340.019531 247.824219 338.992188 250.304688 C 337.964844 252.78125 336.878906 255.230469 335.730469 257.65625 C 334.585938 260.082031 333.378906 262.476562 332.117188 264.839844 C 330.851562 267.207031 329.53125 269.539062 328.152344 271.839844 C 326.773438 274.140625 325.339844 276.40625 323.847656 278.636719 C 322.359375 280.863281 320.8125 283.058594 319.214844 285.210938 C 317.617188 287.367188 315.96875 289.480469 314.269531 291.550781 C 312.566406 293.625 310.816406 295.65625 309.015625 297.644531 C 307.214844 299.628906 305.363281 301.570312 303.46875 303.46875 C 301.570312 305.363281 299.628906 307.214844 297.644531 309.015625 C 295.65625 310.816406 293.625 312.566406 291.550781 314.269531 C 289.480469 315.96875 287.367188 317.617188 285.210938 319.214844 C 283.058594 320.8125 280.863281 322.359375 278.636719 323.847656 C 276.40625 325.339844 274.140625 326.773438 271.839844 328.152344 C 269.539062 329.53125 267.207031 330.851562 264.839844 332.117188 C 262.476562 333.378906 260.082031 334.585938 257.65625 335.730469 C 255.230469 336.878906 252.78125 337.964844 250.304688 338.992188 C 247.824219 340.019531 245.324219 340.984375 242.800781 341.886719 C 240.273438 342.789062 237.726562 343.632812 235.160156 344.410156 C 232.59375 345.1875 230.011719 345.902344 227.410156 346.554688 C 224.808594 347.207031 222.191406 347.792969 219.5625 348.316406 C 216.929688 348.839844 214.289062 349.300781 211.636719 349.691406 C 208.984375 350.085938 206.324219 350.414062 203.652344 350.675781 C 200.984375 350.941406 198.3125 351.136719 195.632812 351.269531 C 192.953125 351.398438 190.273438 351.464844 187.589844 351.464844 C 184.910156 351.464844 182.230469 351.398438 179.550781 351.269531 C 176.871094 351.136719 174.199219 350.941406 171.527344 350.675781 C 168.859375 350.414062 166.199219 350.085938 163.546875 349.691406 C 160.894531 349.300781 158.25 348.839844 155.621094 348.316406 C 152.992188 347.792969 150.375 347.207031 147.773438 346.554688 C 145.171875 345.902344 142.585938 345.1875 140.019531 344.410156 C 137.453125 343.632812 134.910156 342.789062 132.382812 341.886719 C 129.859375 340.984375 127.355469 340.019531 124.878906 338.992188 C 122.402344 337.964844 119.949219 336.878906 117.527344 335.730469 C 115.101562 334.585938 112.707031 333.378906 110.339844 332.117188 C 107.976562 330.851562 105.644531 329.53125 103.34375 328.152344 C 101.042969 326.773438 98.777344 325.339844 96.546875 323.847656 C 94.316406 322.359375 92.125 320.8125 89.972656 319.214844 C 87.816406 317.617188 85.703125 315.96875 83.628906 314.269531 C 81.558594 312.566406 79.527344 310.816406 77.539062 309.015625 C 75.550781 307.214844 73.609375 305.363281 71.714844 303.46875 C 69.816406 301.570312 67.96875 299.628906 66.167969 297.644531 C 64.367188 295.65625 62.617188 293.625 60.914062 291.550781 C 59.210938 289.480469 57.5625 287.367188 55.964844 285.210938 C 54.367188 283.058594 52.824219 280.863281 51.335938 278.636719 C 49.84375 276.40625 48.410156 274.140625 47.03125 271.839844 C 45.652344 269.539062 44.332031 267.207031 43.066406 264.839844 C 41.800781 262.476562 40.597656 260.082031 39.449219 257.65625 C 38.304688 255.230469 37.214844 252.78125 36.191406 250.304688 C 35.164062 247.824219 34.199219 245.324219 33.296875 242.800781 C 32.390625 240.273438 31.550781 237.726562 30.773438 235.160156 C 29.992188 232.59375 29.277344 230.011719 28.628906 227.410156 C 27.976562 224.808594 27.386719 222.191406 26.863281 219.5625 C 26.339844 216.929688 25.882812 214.289062 25.488281 211.636719 C 25.097656 208.984375 24.769531 206.324219 24.503906 203.652344 C 24.242188 200.984375 24.046875 198.3125 23.914062 195.632812 C 23.78125 192.953125 23.714844 190.273438 23.714844 187.589844 C 23.714844 184.910156 23.78125 182.230469 23.914062 179.550781 C 24.046875 176.871094 24.242188 174.199219 24.503906 171.527344 C 24.769531 168.859375 25.097656 166.199219 25.488281 163.546875 C 25.882812 160.894531 26.339844 158.25 26.863281 155.621094 C 27.386719 152.992188 27.976562 150.375 28.628906 147.773438 C 29.277344 145.171875 29.992188 142.585938 30.773438 140.019531 C 31.550781 137.453125 32.390625 134.910156 33.296875 132.382812 C 34.199219 129.859375 35.164062 127.355469 36.191406 124.878906 C 37.214844 122.402344 38.304688 119.949219 39.449219 117.527344 C 40.597656 115.101562 41.800781 112.707031 43.066406 110.339844 C 44.332031 107.976562 45.652344 105.644531 47.03125 103.34375 C 48.410156 101.042969 49.84375 98.777344 51.335938 96.546875 C 52.824219 94.316406 54.367188 92.125 55.964844 89.972656 C 57.5625 87.816406 59.210938 85.703125 60.914062 83.628906 C 62.617188 81.558594 64.367188 79.527344 66.167969 77.539062 C 67.96875 75.550781 69.816406 73.609375 71.714844 71.714844 C 73.609375 69.816406 75.550781 67.96875 77.539062 66.167969 C 79.527344 64.367188 81.558594 62.617188 83.628906 60.914062 C 85.703125 59.210938 87.816406 57.5625 89.972656 55.964844 C 92.125 54.367188 94.316406 52.824219 96.546875 51.335938 C 98.777344 49.84375 101.042969 48.410156 103.34375 47.03125 C 105.644531 45.652344 107.976562 44.332031 110.339844 43.066406 C 112.707031 41.800781 115.101562 40.597656 117.527344 39.449219 C 119.949219 38.304688 122.402344 37.214844 124.878906 36.191406 C 127.355469 35.164062 129.859375 34.199219 132.382812 33.296875 C 134.910156 32.390625 137.453125 31.550781 140.019531 30.773438 C 142.585938 29.992188 145.171875 29.277344 147.773438 28.628906 C 150.375 27.976562 152.992188 27.386719 155.621094 26.863281 C 158.25 26.339844 160.894531 25.882812 163.546875 25.488281 C 166.199219 25.097656 168.859375 24.769531 171.527344 24.503906 C 174.199219 24.242188 176.871094 24.046875 179.550781 23.914062 C 182.230469 23.78125 184.910156 23.714844 187.589844 23.714844 C 190.273438 23.714844 192.953125 23.78125 195.632812 23.914062 C 198.3125 24.046875 200.984375 24.242188 203.652344 24.503906 C 206.324219 24.769531 208.984375 25.097656 211.636719 25.488281 C 214.289062 25.882812 216.929688 26.339844 219.5625 26.863281 C 222.191406 27.386719 224.808594 27.976562 227.410156 28.628906 C 230.011719 29.277344 232.59375 29.992188 235.160156 30.773438 C 237.726562 31.550781 240.273438 32.390625 242.800781 33.296875 C 245.324219 34.199219 247.824219 35.164062 250.304688 36.191406 C 252.78125 37.214844 255.230469 38.304688 257.65625 39.449219 C 260.082031 40.597656 262.476562 41.800781 264.839844 43.066406 C 267.207031 44.332031 269.539062 45.652344 271.839844 47.03125 C 274.140625 48.410156 276.40625 49.84375 278.636719 51.335938 C 280.863281 52.824219 283.058594 54.367188 285.210938 55.964844 C 287.367188 57.5625 289.480469 59.210938 291.550781 60.914062 C 293.625 62.617188 295.65625 64.367188 297.644531 66.167969 C 299.628906 67.96875 301.570312 69.816406 303.46875 71.714844 C 305.363281 73.609375 307.214844 75.550781 309.015625 77.539062 C 310.816406 79.527344 312.566406 81.558594 314.269531 83.628906 C 315.96875 85.703125 317.617188 87.816406 319.214844 89.972656 C 320.8125 92.125 322.359375 94.316406 323.847656 96.546875 C 325.339844 98.777344 326.773438 101.042969 328.152344 103.34375 C 329.53125 105.644531 330.851562 107.976562 332.117188 110.339844 C 333.378906 112.707031 334.585938 115.101562 335.730469 117.527344 C 336.878906 119.949219 337.964844 122.402344 338.992188 124.878906 C 340.019531 127.355469 340.984375 129.859375 341.886719 132.382812 C 342.789062 134.910156 343.632812 137.453125 344.410156 140.019531 C 345.1875 142.585938 345.902344 145.171875 346.554688 147.773438 C 347.207031 150.375 347.792969 152.992188 348.316406 155.621094 C 348.839844 158.25 349.300781 160.894531 349.691406 163.546875 C 350.085938 166.199219 350.414062 168.859375 350.675781 171.527344 C 350.941406 174.199219 351.136719 176.871094 351.269531 179.550781 C 351.398438 182.230469 351.464844 184.910156 351.464844 187.589844 Z M 351.464844 187.589844 " fill-opacity="1" fill-rule="nonzero"/></g><g clip-path="url(#292b4f4517)"><g clip-path="url(#ac66e2b693)"><path fill="#318ce7" d="M 22.335938 22.335938 L 352.664062 22.335938 L 352.664062 352.664062 L 22.335938 352.664062 Z M 22.335938 22.335938 " fill-opacity="1" fill-rule="nonzero"/></g></g><g clip-path="url(#d6738853e2)"><path fill="#318ce7" d="M 232.773438 321.910156 L 152.070312 321.910156 C 151.78125 321.90625 151.492188 321.878906 151.210938 321.820312 C 150.925781 321.765625 150.648438 321.679688 150.378906 321.570312 C 150.109375 321.457031 149.855469 321.320312 149.613281 321.160156 C 149.375 321 149.148438 320.816406 148.945312 320.609375 C 148.738281 320.402344 148.554688 320.179688 148.394531 319.9375 C 148.234375 319.699219 148.097656 319.441406 147.984375 319.175781 C 147.875 318.90625 147.789062 318.628906 147.730469 318.34375 C 147.675781 318.058594 147.644531 317.773438 147.644531 317.480469 L 147.644531 299.199219 C 147.644531 298.910156 147.671875 298.621094 147.730469 298.335938 C 147.785156 298.050781 147.867188 297.773438 147.980469 297.503906 C 148.089844 297.234375 148.226562 296.976562 148.386719 296.734375 C 148.550781 296.492188 148.734375 296.269531 148.9375 296.0625 C 149.144531 295.859375 149.367188 295.671875 149.609375 295.511719 C 149.851562 295.351562 150.105469 295.214844 150.375 295.101562 C 150.644531 294.992188 150.921875 294.90625 151.207031 294.847656 C 151.492188 294.792969 151.78125 294.765625 152.070312 294.765625 L 164.421875 294.765625 L 164.421875 141.292969 L 152.070312 141.292969 C 151.78125 141.292969 151.492188 141.261719 151.207031 141.207031 C 150.921875 141.148438 150.644531 141.066406 150.375 140.953125 C 150.105469 140.84375 149.851562 140.707031 149.609375 140.542969 C 149.367188 140.382812 149.144531 140.199219 148.9375 139.992188 C 148.734375 139.785156 148.550781 139.5625 148.386719 139.320312 C 148.226562 139.078125 148.089844 138.820312 147.980469 138.550781 C 147.867188 138.285156 147.785156 138.007812 147.730469 137.722656 C 147.671875 137.433594 147.644531 137.148438 147.644531 136.855469 L 147.644531 118.574219 C 147.644531 118.28125 147.675781 117.996094 147.730469 117.710938 C 147.789062 117.425781 147.871094 117.148438 147.984375 116.878906 C 148.09375 116.609375 148.230469 116.355469 148.390625 116.113281 C 148.554688 115.871094 148.738281 115.648438 148.941406 115.441406 C 149.148438 115.238281 149.371094 115.054688 149.613281 114.894531 C 149.855469 114.730469 150.109375 114.59375 150.378906 114.484375 C 150.648438 114.371094 150.921875 114.289062 151.207031 114.230469 C 151.492188 114.175781 151.78125 114.148438 152.070312 114.148438 L 232.773438 114.148438 C 233.066406 114.148438 233.351562 114.175781 233.636719 114.230469 C 233.921875 114.289062 234.199219 114.371094 234.46875 114.484375 C 234.734375 114.59375 234.992188 114.730469 235.234375 114.894531 C 235.472656 115.054688 235.699219 115.238281 235.902344 115.441406 C 236.109375 115.648438 236.292969 115.871094 236.453125 116.113281 C 236.617188 116.355469 236.75 116.609375 236.863281 116.878906 C 236.972656 117.148438 237.058594 117.425781 237.113281 117.710938 C 237.171875 117.996094 237.199219 118.28125 237.199219 118.574219 L 237.199219 136.855469 C 237.199219 137.148438 237.171875 137.433594 237.117188 137.722656 C 237.058594 138.007812 236.976562 138.285156 236.867188 138.550781 C 236.753906 138.820312 236.617188 139.078125 236.457031 139.320312 C 236.296875 139.5625 236.113281 139.785156 235.90625 139.992188 C 235.703125 140.199219 235.476562 140.382812 235.234375 140.542969 C 234.992188 140.707031 234.738281 140.84375 234.46875 140.953125 C 234.199219 141.066406 233.925781 141.148438 233.636719 141.207031 C 233.351562 141.261719 233.066406 141.292969 232.773438 141.292969 L 220.425781 141.292969 L 220.425781 294.808594 L 232.753906 294.808594 C 233.046875 294.808594 233.335938 294.835938 233.621094 294.894531 C 233.90625 294.953125 234.183594 295.035156 234.453125 295.148438 C 234.71875 295.257812 234.976562 295.394531 235.21875 295.558594 C 235.460938 295.71875 235.683594 295.902344 235.890625 296.109375 C 236.09375 296.316406 236.277344 296.539062 236.4375 296.78125 C 236.601562 297.023438 236.738281 297.277344 236.847656 297.546875 C 236.957031 297.816406 237.042969 298.09375 237.097656 298.378906 C 237.15625 298.664062 237.183594 298.953125 237.183594 299.246094 L 237.183594 317.480469 C 237.179688 317.773438 237.152344 318.058594 237.097656 318.34375 C 237.039062 318.628906 236.957031 318.902344 236.84375 319.171875 C 236.734375 319.4375 236.597656 319.691406 236.4375 319.933594 C 236.277344 320.175781 236.09375 320.398438 235.890625 320.601562 C 235.683594 320.808594 235.460938 320.992188 235.222656 321.152344 C 234.980469 321.316406 234.726562 321.453125 234.460938 321.5625 C 234.195312 321.675781 233.917969 321.761719 233.632812 321.820312 C 233.351562 321.875 233.0625 321.90625 232.773438 321.910156 Z M 232.773438 321.910156 " fill-opacity="1" fill-rule="nonzero"/></g><g clip-path="url(#e8298975c1)"><path fill="#318ce7" d="M 142.21875 322.664062 L 222.917969 322.664062 C 223.210938 322.664062 223.496094 322.632812 223.78125 322.578125 C 224.066406 322.519531 224.34375 322.433594 224.613281 322.324219 C 224.878906 322.210938 225.136719 322.074219 225.375 321.914062 C 225.617188 321.753906 225.839844 321.570312 226.046875 321.363281 C 226.253906 321.160156 226.433594 320.933594 226.597656 320.695312 C 226.757812 320.453125 226.894531 320.199219 227.007812 319.929688 C 227.117188 319.660156 227.203125 319.382812 227.257812 319.101562 C 227.316406 318.816406 227.34375 318.527344 227.34375 318.238281 L 227.34375 299.953125 C 227.347656 299.664062 227.320312 299.375 227.261719 299.089844 C 227.207031 298.804688 227.121094 298.527344 227.011719 298.257812 C 226.902344 297.988281 226.765625 297.734375 226.601562 297.492188 C 226.441406 297.25 226.257812 297.023438 226.050781 296.816406 C 225.847656 296.613281 225.625 296.429688 225.382812 296.265625 C 225.140625 296.105469 224.882812 295.96875 224.617188 295.855469 C 224.347656 295.746094 224.070312 295.660156 223.785156 295.605469 C 223.5 295.546875 223.210938 295.519531 222.917969 295.519531 L 210.570312 295.519531 L 210.570312 142.046875 L 222.917969 142.046875 C 223.210938 142.046875 223.5 142.015625 223.785156 141.960938 C 224.070312 141.902344 224.347656 141.820312 224.617188 141.707031 C 224.882812 141.597656 225.140625 141.460938 225.382812 141.296875 C 225.625 141.136719 225.847656 140.953125 226.050781 140.746094 C 226.257812 140.539062 226.441406 140.316406 226.601562 140.074219 C 226.765625 139.832031 226.902344 139.578125 227.011719 139.308594 C 227.121094 139.039062 227.207031 138.761719 227.261719 138.476562 C 227.320312 138.191406 227.347656 137.902344 227.34375 137.609375 L 227.34375 119.328125 C 227.34375 119.035156 227.316406 118.75 227.261719 118.464844 C 227.203125 118.179688 227.121094 117.902344 227.007812 117.632812 C 226.898438 117.367188 226.761719 117.109375 226.601562 116.867188 C 226.4375 116.625 226.253906 116.402344 226.050781 116.199219 C 225.84375 115.992188 225.621094 115.808594 225.378906 115.648438 C 225.136719 115.484375 224.882812 115.347656 224.613281 115.238281 C 224.34375 115.128906 224.066406 115.042969 223.78125 114.988281 C 223.496094 114.929688 223.210938 114.902344 222.917969 114.902344 L 142.21875 114.902344 C 141.925781 114.902344 141.640625 114.929688 141.355469 114.988281 C 141.070312 115.042969 140.792969 115.128906 140.523438 115.238281 C 140.253906 115.347656 140 115.484375 139.757812 115.648438 C 139.515625 115.808594 139.292969 115.992188 139.085938 116.199219 C 138.882812 116.402344 138.699219 116.625 138.539062 116.867188 C 138.375 117.109375 138.238281 117.367188 138.128906 117.632812 C 138.015625 117.902344 137.933594 118.179688 137.875 118.464844 C 137.820312 118.75 137.792969 119.035156 137.792969 119.328125 L 137.792969 137.609375 C 137.789062 137.902344 137.820312 138.191406 137.875 138.476562 C 137.929688 138.761719 138.015625 139.039062 138.125 139.308594 C 138.238281 139.578125 138.371094 139.832031 138.535156 140.074219 C 138.695312 140.316406 138.878906 140.539062 139.085938 140.746094 C 139.289062 140.953125 139.515625 141.136719 139.753906 141.296875 C 139.996094 141.460938 140.253906 141.597656 140.523438 141.707031 C 140.789062 141.820312 141.066406 141.902344 141.351562 141.960938 C 141.636719 142.015625 141.925781 142.046875 142.21875 142.046875 L 154.566406 142.046875 L 154.566406 295.5625 L 142.234375 295.5625 C 141.945312 295.5625 141.65625 295.59375 141.371094 295.648438 C 141.085938 295.707031 140.808594 295.789062 140.539062 295.902344 C 140.269531 296.011719 140.015625 296.148438 139.773438 296.3125 C 139.53125 296.472656 139.308594 296.65625 139.101562 296.863281 C 138.898438 297.070312 138.714844 297.292969 138.550781 297.535156 C 138.390625 297.777344 138.253906 298.035156 138.144531 298.300781 C 138.03125 298.570312 137.949219 298.847656 137.894531 299.132812 C 137.835938 299.417969 137.808594 299.707031 137.808594 300 L 137.808594 318.238281 C 137.808594 318.527344 137.839844 318.8125 137.894531 319.097656 C 137.953125 319.382812 138.035156 319.65625 138.148438 319.925781 C 138.257812 320.191406 138.394531 320.445312 138.554688 320.6875 C 138.714844 320.929688 138.898438 321.152344 139.101562 321.359375 C 139.304688 321.5625 139.527344 321.746094 139.769531 321.90625 C 140.007812 322.070312 140.261719 322.207031 140.53125 322.320312 C 140.796875 322.429688 141.074219 322.515625 141.355469 322.574219 C 141.640625 322.632812 141.929688 322.660156 142.21875 322.664062 Z M 142.21875 322.664062 " fill-opacity="1" fill-rule="nonzero"/></g><g clip-path="url(#18ff6bcfd4)"><path fill="#318ce7" d="M 215.707031 92.65625 C 215.707031 93.574219 215.664062 94.492188 215.574219 95.40625 C 215.484375 96.320312 215.347656 97.226562 215.167969 98.128906 C 214.988281 99.027344 214.765625 99.917969 214.5 100.796875 C 214.234375 101.675781 213.925781 102.539062 213.574219 103.390625 C 213.222656 104.238281 212.828125 105.066406 212.394531 105.878906 C 211.964844 106.6875 211.492188 107.472656 210.980469 108.238281 C 210.46875 109 209.925781 109.738281 209.339844 110.449219 C 208.757812 111.160156 208.140625 111.839844 207.492188 112.488281 C 206.84375 113.136719 206.164062 113.753906 205.453125 114.335938 C 204.742188 114.917969 204.007812 115.464844 203.242188 115.976562 C 202.480469 116.488281 201.691406 116.957031 200.882812 117.390625 C 200.070312 117.824219 199.242188 118.214844 198.394531 118.566406 C 197.542969 118.917969 196.679688 119.230469 195.800781 119.496094 C 194.921875 119.761719 194.03125 119.984375 193.132812 120.164062 C 192.230469 120.34375 191.324219 120.476562 190.410156 120.566406 C 189.496094 120.660156 188.578125 120.703125 187.660156 120.703125 C 186.742188 120.703125 185.824219 120.660156 184.910156 120.566406 C 183.996094 120.476562 183.089844 120.34375 182.1875 120.164062 C 181.289062 119.984375 180.398438 119.761719 179.519531 119.496094 C 178.640625 119.230469 177.773438 118.917969 176.925781 118.566406 C 176.078125 118.214844 175.25 117.824219 174.4375 117.390625 C 173.628906 116.957031 172.839844 116.488281 172.078125 115.976562 C 171.3125 115.464844 170.578125 114.917969 169.867188 114.335938 C 169.15625 113.753906 168.476562 113.136719 167.828125 112.488281 C 167.179688 111.839844 166.5625 111.160156 165.980469 110.449219 C 165.394531 109.738281 164.847656 109 164.339844 108.238281 C 163.828125 107.472656 163.355469 106.6875 162.925781 105.878906 C 162.492188 105.066406 162.097656 104.238281 161.746094 103.390625 C 161.394531 102.539062 161.085938 101.675781 160.820312 100.796875 C 160.554688 99.917969 160.332031 99.027344 160.152344 98.128906 C 159.972656 97.226562 159.835938 96.320312 159.746094 95.40625 C 159.65625 94.492188 159.613281 93.574219 159.613281 92.65625 C 159.613281 91.738281 159.65625 90.820312 159.746094 89.90625 C 159.835938 88.992188 159.972656 88.085938 160.152344 87.183594 C 160.332031 86.28125 160.554688 85.394531 160.820312 84.511719 C 161.085938 83.632812 161.394531 82.769531 161.746094 81.921875 C 162.097656 81.074219 162.492188 80.242188 162.925781 79.433594 C 163.355469 78.625 163.828125 77.835938 164.339844 77.074219 C 164.847656 76.308594 165.394531 75.570312 165.980469 74.863281 C 166.5625 74.152344 167.179688 73.472656 167.828125 72.824219 C 168.476562 72.171875 169.15625 71.558594 169.867188 70.972656 C 170.578125 70.390625 171.3125 69.84375 172.078125 69.335938 C 172.839844 68.824219 173.628906 68.351562 174.4375 67.917969 C 175.25 67.488281 176.078125 67.09375 176.925781 66.742188 C 177.773438 66.390625 178.640625 66.082031 179.519531 65.816406 C 180.398438 65.546875 181.289062 65.324219 182.1875 65.148438 C 183.089844 64.96875 183.996094 64.832031 184.910156 64.742188 C 185.824219 64.652344 186.742188 64.609375 187.660156 64.609375 C 188.578125 64.609375 189.496094 64.652344 190.410156 64.742188 C 191.324219 64.832031 192.230469 64.96875 193.132812 65.148438 C 194.03125 65.324219 194.921875 65.546875 195.800781 65.816406 C 196.679688 66.082031 197.542969 66.390625 198.394531 66.742188 C 199.242188 67.09375 200.070312 67.488281 200.882812 67.917969 C 201.691406 68.351562 202.480469 68.824219 203.242188 69.335938 C 204.007812 69.84375 204.742188 70.390625 205.453125 70.972656 C 206.164062 71.558594 206.84375 72.171875 207.492188 72.824219 C 208.140625 73.472656 208.757812 74.152344 209.339844 74.863281 C 209.925781 75.570312 210.46875 76.308594 210.980469 77.074219 C 211.492188 77.835938 211.964844 78.625 212.394531 79.433594 C 212.828125 80.242188 213.222656 81.074219 213.574219 81.921875 C 213.925781 82.769531 214.234375 83.632812 214.5 84.511719 C 214.765625 85.394531 214.988281 86.28125 215.167969 87.183594 C 215.347656 88.085938 215.484375 88.992188 215.574219 89.90625 C 215.664062 90.820312 215.707031 91.738281 215.707031 92.65625 Z M 215.707031 92.65625 " fill-opacity="1" fill-rule="nonzero"/></g></svg>