<svg xmlns="http://www.w3.org/2000/svg" xmlns:xlink="http://www.w3.org/1999/xlink" width="500" zoomAndPan="magnify" viewBox="0 0 375 374.999991" height="500" preserveAspectRatio="xMidYMid meet" version="1.0"><defs><g/><clipPath id="b63ca3be60"><path d="M 22.335938 22.335938 L 352.664062 22.335938 L 352.664062 352.664062 L 22.335938 352.664062 Z M 22.335938 22.335938 " clip-rule="nonzero"/></clipPath><clipPath id="d27e25c058"><path d="M 187.5 352.664062 C 143.402344 352.664062 101.878906 335.503906 70.722656 304.277344 C 39.496094 273.121094 22.335938 231.597656 22.335938 187.5 C 22.335938 143.402344 39.496094 101.878906 70.722656 70.722656 C 101.878906 39.496094 143.402344 22.335938 187.5 22.335938 C 231.597656 22.335938 273.121094 39.496094 304.277344 70.722656 C 335.503906 101.945312 352.664062 143.402344 352.664062 187.5 C 352.664062 231.597656 335.503906 273.121094 304.277344 304.277344 C 273.121094 335.503906 231.597656 352.664062 187.5 352.664062 Z M 187.5 32.234375 C 146.042969 32.234375 107.03125 48.410156 77.71875 77.71875 C 48.410156 107.03125 32.234375 146.042969 32.234375 187.5 C 32.234375 228.957031 48.410156 267.96875 77.71875 297.28125 C 107.03125 326.589844 146.042969 342.765625 187.5 342.765625 C 228.957031 342.765625 267.96875 326.589844 297.28125 297.28125 C 326.589844 267.96875 342.765625 228.957031 342.765625 187.5 C 342.765625 146.042969 326.589844 107.03125 297.28125 77.71875 C 267.96875 48.410156 228.957031 32.234375 187.5 32.234375 Z M 187.5 32.234375 " clip-rule="nonzero"/></clipPath><clipPath id="c1ac58d2da"><path d="M 161.074219 136.898438 L 183.996094 136.898438 L 183.996094 256.230469 L 161.074219 256.230469 Z M 161.074219 136.898438 " clip-rule="nonzero"/></clipPath><clipPath id="3da45768ab"><path d="M 190.871094 137.386719 L 213.792969 137.386719 L 213.792969 256.71875 L 190.871094 256.71875 Z M 190.871094 137.386719 " clip-rule="nonzero"/></clipPath><clipPath id="a2a29d4054"><path d="M 169.402344 97.328125 L 205.808594 97.328125 L 205.808594 133.734375 L 169.402344 133.734375 Z M 169.402344 97.328125 " clip-rule="nonzero"/></clipPath></defs><g clip-path="url(#b63ca3be60)"><g clip-path="url(#d27e25c058)"><path fill="#197086" d="M 22.335938 22.335938 L 352.664062 22.335938 L 352.664062 352.664062 L 22.335938 352.664062 Z M 22.335938 22.335938 " fill-opacity="1" fill-rule="nonzero"/></g></g><g fill="#0f151c" fill-opacity="1"><g transform="translate(71.525677, 187.069574)"><g><path d="M 0.375 -7.859375 L 0.109375 -2.21875 L -22.078125 -3.28125 L -21.8125 -8.921875 Z M 0.375 -7.859375 "/></g></g></g><g fill="#0f151c" fill-opacity="1"><g transform="translate(71.66982, 176.455698)"><g><path d="M -14.578125 -16.40625 C -14.234375 -18.25 -13.363281 -19.617188 -11.96875 -20.515625 C -10.582031 -21.421875 -8.910156 -21.6875 -6.953125 -21.3125 L 3.65625 -19.3125 L 2.640625 -13.9375 L -6.46875 -15.65625 C -7.445312 -15.84375 -8.269531 -15.726562 -8.9375 -15.3125 C -9.613281 -14.894531 -10.039062 -14.226562 -10.21875 -13.3125 C -10.394531 -12.351562 -10.226562 -11.503906 -9.71875 -10.765625 C -9.21875 -10.035156 -8.46875 -9.523438 -7.46875 -9.234375 L 1.421875 -7.546875 L 0.40625 -2.15625 L -16.40625 -5.34375 L -15.390625 -10.734375 L -12.640625 -10.203125 C -14.367188 -11.765625 -15.015625 -13.832031 -14.578125 -16.40625 Z M -14.578125 -16.40625 "/></g></g></g><g fill="#0f151c" fill-opacity="1"><g transform="translate(75.896781, 155.330584)"><g><path d="M -13.453125 -13.78125 C -12.585938 -16.144531 -11.179688 -18.125 -9.234375 -19.71875 L -6.515625 -16.765625 C -8.316406 -15.160156 -9.472656 -13.664062 -9.984375 -12.28125 C -10.367188 -11.21875 -10.195312 -10.550781 -9.46875 -10.28125 C -9.0625 -10.132812 -8.617188 -10.300781 -8.140625 -10.78125 C -7.671875 -11.257812 -7.171875 -11.875 -6.640625 -12.625 C -6.109375 -13.382812 -5.523438 -14.113281 -4.890625 -14.8125 C -4.265625 -15.519531 -3.488281 -16.03125 -2.5625 -16.34375 C -1.644531 -16.664062 -0.671875 -16.640625 0.359375 -16.265625 C 1.960938 -15.679688 2.988281 -14.59375 3.4375 -13 C 3.882812 -11.414062 3.742188 -9.617188 3.015625 -7.609375 C 1.972656 -4.773438 0.34375 -2.648438 -1.875 -1.234375 L -4.578125 -4.0625 C -2.546875 -5.46875 -1.179688 -7.125 -0.484375 -9.03125 C -0.0546875 -10.195312 -0.210938 -10.914062 -0.953125 -11.1875 C -1.359375 -11.332031 -1.804688 -11.171875 -2.296875 -10.703125 C -2.785156 -10.242188 -3.285156 -9.648438 -3.796875 -8.921875 C -4.316406 -8.191406 -4.890625 -7.476562 -5.515625 -6.78125 C -6.140625 -6.082031 -6.898438 -5.578125 -7.796875 -5.265625 C -8.703125 -4.953125 -9.6875 -4.988281 -10.75 -5.375 C -12.363281 -5.96875 -13.394531 -7.035156 -13.84375 -8.578125 C -14.289062 -10.117188 -14.160156 -11.851562 -13.453125 -13.78125 Z M -13.453125 -13.78125 "/></g></g></g><g fill="#0f151c" fill-opacity="1"><g transform="translate(81.782287, 139.563501)"><g><path d="M 1.46875 -12.96875 L 5.34375 -12.140625 C 5.414062 -10.597656 5.050781 -9.070312 4.25 -7.5625 C 3.457031 -6.0625 2.398438 -5.066406 1.078125 -4.578125 C -0.234375 -4.085938 -1.65625 -4.242188 -3.1875 -5.046875 L -9.875 -8.5625 L -10.984375 -6.46875 L -14.15625 -8.140625 L -13.046875 -10.234375 L -17.265625 -12.453125 L -14.71875 -17.296875 L -10.53125 -15.09375 L -8.453125 -19.046875 L -5.25 -17.359375 L -7.328125 -13.40625 L -1.40625 -10.296875 C -0.820312 -9.984375 -0.335938 -9.867188 0.046875 -9.953125 C 0.441406 -10.046875 0.757812 -10.332031 1 -10.8125 C 1.238281 -11.269531 1.394531 -11.988281 1.46875 -12.96875 Z M 1.46875 -12.96875 "/></g></g></g><g fill="#0f151c" fill-opacity="1"><g transform="translate(88.742376, 126.666562)"><g><path d="M -18.375 -15.859375 C -18.519531 -16.617188 -18.351562 -17.347656 -17.875 -18.046875 C -17.40625 -18.742188 -16.796875 -19.164062 -16.046875 -19.3125 C -15.296875 -19.457031 -14.570312 -19.289062 -13.875 -18.8125 C -13.175781 -18.34375 -12.75 -17.726562 -12.59375 -16.96875 C -12.4375 -16.21875 -12.59375 -15.492188 -13.0625 -14.796875 C -13.539062 -14.097656 -14.160156 -13.675781 -14.921875 -13.53125 C -15.679688 -13.382812 -16.410156 -13.546875 -17.109375 -14.015625 C -17.804688 -14.492188 -18.226562 -15.109375 -18.375 -15.859375 Z M 4.28125 -6.34375 L 1.21875 -1.8125 L -12.96875 -11.375 L -9.90625 -15.90625 Z M 4.28125 -6.34375 "/></g></g></g><g fill="#0f151c" fill-opacity="1"><g transform="translate(94.690046, 117.734645)"><g><path d="M 4.25 -12.34375 L 7.84375 -10.6875 C 7.582031 -9.175781 6.898438 -7.769531 5.796875 -6.46875 C 4.691406 -5.164062 3.441406 -4.421875 2.046875 -4.234375 C 0.648438 -4.046875 -0.707031 -4.507812 -2.03125 -5.625 L -7.796875 -10.515625 L -9.328125 -8.703125 L -12.0625 -11.015625 L -10.53125 -12.828125 L -14.171875 -15.90625 L -10.625 -20.078125 L -7 -17.015625 L -4.125 -20.421875 L -1.375 -18.09375 L -4.25 -14.6875 L 0.859375 -10.34375 C 1.359375 -9.925781 1.8125 -9.71875 2.21875 -9.71875 C 2.625 -9.71875 2.988281 -9.925781 3.3125 -10.34375 C 3.632812 -10.726562 3.945312 -11.394531 4.25 -12.34375 Z M 4.25 -12.34375 "/></g></g></g><g fill="#0f151c" fill-opacity="1"><g transform="translate(103.644379, 106.77044)"><g><path d="M 3 -25.28125 L 14.234375 -12.375 L 10.078125 -8.765625 L 8.21875 -10.90625 C 8.675781 -8.601562 7.945312 -6.617188 6.03125 -4.953125 C 4.625 -3.734375 3.113281 -3.207031 1.5 -3.375 C -0.113281 -3.539062 -1.570312 -4.375 -2.875 -5.875 L -9.96875 -14.015625 L -5.828125 -17.609375 L 0.234375 -10.640625 C 0.910156 -9.867188 1.632812 -9.4375 2.40625 -9.34375 C 3.175781 -9.257812 3.882812 -9.5 4.53125 -10.0625 C 5.3125 -10.757812 5.675781 -11.582031 5.625 -12.53125 C 5.582031 -13.488281 5.171875 -14.414062 4.390625 -15.3125 L -1.15625 -21.671875 Z M 3 -25.28125 "/></g></g></g><g fill="#0f151c" fill-opacity="1"><g transform="translate(119.951248, 92.980804)"><g><path d="M 7.75 -10.5 L 10.6875 -7.84375 C 9.988281 -6.46875 8.914062 -5.320312 7.46875 -4.40625 C 6.03125 -3.5 4.613281 -3.164062 3.21875 -3.40625 C 1.832031 -3.644531 0.675781 -4.5 -0.25 -5.96875 L -4.28125 -12.359375 L -6.28125 -11.09375 L -8.203125 -14.125 L -6.203125 -15.390625 L -8.75 -19.40625 L -4.125 -22.328125 L -1.59375 -18.328125 L 2.1875 -20.71875 L 4.125 -17.671875 L 0.34375 -15.28125 L 3.921875 -9.609375 C 4.265625 -9.054688 4.628906 -8.71875 5.015625 -8.59375 C 5.410156 -8.476562 5.828125 -8.570312 6.265625 -8.875 C 6.691406 -9.144531 7.1875 -9.6875 7.75 -10.5 Z M 7.75 -10.5 "/></g></g></g><g fill="#0f151c" fill-opacity="1"><g transform="translate(131.83418, 85.222345)"><g><path d="M 2.296875 -19.90625 C 4.859375 -21.03125 7.25 -21.207031 9.46875 -20.4375 C 11.6875 -19.664062 13.320312 -18.078125 14.375 -15.671875 C 15.425781 -13.273438 15.488281 -10.992188 14.5625 -8.828125 C 13.644531 -6.671875 11.90625 -5.03125 9.34375 -3.90625 C 6.769531 -2.769531 4.375 -2.59375 2.15625 -3.375 C -0.0625 -4.164062 -1.695312 -5.757812 -2.75 -8.15625 C -3.800781 -10.5625 -3.863281 -12.835938 -2.9375 -14.984375 C -2.019531 -17.128906 -0.273438 -18.769531 2.296875 -19.90625 Z M 4.046875 -15.9375 C 2.992188 -15.476562 2.3125 -14.726562 2 -13.6875 C 1.6875 -12.644531 1.796875 -11.523438 2.328125 -10.328125 C 2.859375 -9.109375 3.609375 -8.265625 4.578125 -7.796875 C 5.554688 -7.335938 6.570312 -7.335938 7.625 -7.796875 C 8.65625 -8.242188 9.332031 -8.984375 9.65625 -10.015625 C 9.976562 -11.054688 9.875 -12.1875 9.34375 -13.40625 C 8.8125 -14.601562 8.050781 -15.4375 7.0625 -15.90625 C 6.082031 -16.375 5.078125 -16.382812 4.046875 -15.9375 Z M 4.046875 -15.9375 "/></g></g></g><g fill="#0f151c" fill-opacity="1"><g transform="translate(151.111812, 77.226447)"><g/></g></g><g fill="#0f151c" fill-opacity="1"><g transform="translate(158.902219, 74.66921)"><g><path d="M 11 -24.578125 L 13.65625 -9.78125 C 14.070312 -7.46875 13.722656 -5.546875 12.609375 -4.015625 C 11.503906 -2.484375 9.773438 -1.503906 7.421875 -1.078125 C 4.441406 -0.535156 1.722656 -1.25 -0.734375 -3.21875 L 1.15625 -7.40625 C 3.007812 -6.0625 4.6875 -5.523438 6.1875 -5.796875 C 7.75 -6.078125 8.367188 -7.113281 8.046875 -8.90625 L 6.203125 -19.09375 L -1.296875 -17.734375 L -2.09375 -22.21875 Z M 11 -24.578125 "/></g></g></g><g fill="#0f151c" fill-opacity="1"><g transform="translate(175.809432, 71.469863)"><g><path d="M 18.625 -17.359375 L 18.859375 -0.25 L 13.359375 -0.171875 L 13.328125 -3 C 12.191406 -0.957031 10.351562 0.078125 7.8125 0.109375 C 5.945312 0.140625 4.453125 -0.425781 3.328125 -1.59375 C 2.203125 -2.757812 1.628906 -4.335938 1.609375 -6.328125 L 1.453125 -17.125 L 6.9375 -17.203125 L 7.0625 -7.96875 C 7.082031 -6.945312 7.351562 -6.148438 7.875 -5.578125 C 8.40625 -5.003906 9.101562 -4.726562 9.96875 -4.75 C 11.007812 -4.78125 11.816406 -5.171875 12.390625 -5.921875 C 12.972656 -6.679688 13.257812 -7.65625 13.25 -8.84375 L 13.125 -17.28125 Z M 18.625 -17.359375 "/></g></g></g><g fill="#0f151c" fill-opacity="1"><g transform="translate(196.934411, 71.281604)"><g><path d="M 12.515625 -15.59375 C 14.835938 -15.21875 16.550781 -14.382812 17.65625 -13.09375 C 18.757812 -11.8125 19.171875 -10.207031 18.890625 -8.28125 L 17.109375 2.75 L 11.8125 1.90625 L 12.125 -0.03125 C 10.78125 1.238281 8.941406 1.6875 6.609375 1.3125 C 4.828125 1.03125 3.492188 0.316406 2.609375 -0.828125 C 1.722656 -1.984375 1.40625 -3.34375 1.65625 -4.90625 C 1.914062 -6.519531 2.675781 -7.679688 3.9375 -8.390625 C 5.195312 -9.097656 6.867188 -9.296875 8.953125 -8.984375 L 13.40625 -8.265625 L 13.453125 -8.515625 C 13.585938 -9.347656 13.414062 -10.039062 12.9375 -10.59375 C 12.457031 -11.15625 11.675781 -11.523438 10.59375 -11.703125 C 9.0625 -11.941406 7.304688 -11.738281 5.328125 -11.09375 L 4.359375 -14.921875 C 7.304688 -15.765625 10.023438 -15.988281 12.515625 -15.59375 Z M 8.84375 -2.078125 C 9.707031 -1.929688 10.5 -2.019531 11.21875 -2.34375 C 11.9375 -2.675781 12.429688 -3.175781 12.703125 -3.84375 L 12.9375 -5.34375 L 9.53125 -5.890625 C 7.894531 -6.148438 6.984375 -5.679688 6.796875 -4.484375 C 6.691406 -3.847656 6.816406 -3.316406 7.171875 -2.890625 C 7.535156 -2.460938 8.09375 -2.191406 8.84375 -2.078125 Z M 8.84375 -2.078125 "/></g></g></g><g fill="#0f151c" fill-opacity="1"><g transform="translate(215.833482, 74.224715)"><g><path d="M 18.359375 -12.03125 C 20.128906 -11.414062 21.359375 -10.351562 22.046875 -8.84375 C 22.742188 -7.332031 22.765625 -5.640625 22.109375 -3.765625 L 18.578125 6.4375 L 13.40625 4.640625 L 16.4375 -4.109375 C 16.757812 -5.054688 16.765625 -5.894531 16.453125 -6.625 C 16.140625 -7.351562 15.539062 -7.867188 14.65625 -8.171875 C 13.738281 -8.484375 12.878906 -8.441406 12.078125 -8.046875 C 11.273438 -7.660156 10.65625 -6.988281 10.21875 -6.03125 L 7.265625 2.515625 L 2.0625 0.71875 L 7.65625 -15.453125 L 12.859375 -13.65625 L 11.953125 -11.015625 C 13.742188 -12.492188 15.878906 -12.832031 18.359375 -12.03125 Z M 18.359375 -12.03125 "/></g></g></g><g fill="#0f151c" fill-opacity="1"><g transform="translate(236.414935, 81.870428)"><g/></g></g><g fill="#0f151c" fill-opacity="1"><g transform="translate(243.757871, 85.057178)"><g><path d="M 14.234375 -17.203125 L 22.265625 -11.796875 C 24.617188 -10.210938 26.070312 -8.425781 26.625 -6.4375 C 27.175781 -4.445312 26.765625 -2.425781 25.390625 -0.375 C 23.941406 1.78125 22.160156 3.019531 20.046875 3.34375 C 17.941406 3.664062 15.710938 3.035156 13.359375 1.453125 L 10.015625 -0.796875 L 6.53125 4.390625 L 1.84375 1.234375 Z M 16.453125 -10.375 L 12.5 -4.5 L 15.625 -2.40625 C 16.65625 -1.707031 17.625 -1.425781 18.53125 -1.5625 C 19.4375 -1.695312 20.210938 -2.242188 20.859375 -3.203125 C 21.492188 -4.148438 21.695312 -5.054688 21.46875 -5.921875 C 21.238281 -6.796875 20.609375 -7.582031 19.578125 -8.28125 Z M 16.453125 -10.375 "/></g></g></g><g fill="#0f151c" fill-opacity="1"><g transform="translate(261.654022, 97.221995)"><g><path d="M 19.15625 -5.671875 C 20.851562 -4.035156 21.789062 -2.375 21.96875 -0.6875 C 22.144531 1 21.566406 2.550781 20.234375 3.96875 L 12.484375 12.015625 L 8.625 8.296875 L 9.984375 6.875 C 8.148438 7.164062 6.378906 6.492188 4.671875 4.859375 C 3.378906 3.609375 2.695312 2.253906 2.625 0.796875 C 2.550781 -0.648438 3.066406 -1.945312 4.171875 -3.09375 C 5.304688 -4.269531 6.585938 -4.785156 8.015625 -4.640625 C 9.453125 -4.503906 10.9375 -3.710938 12.46875 -2.265625 L 15.71875 0.875 L 15.90625 0.6875 C 16.488281 0.0703125 16.742188 -0.597656 16.671875 -1.328125 C 16.597656 -2.054688 16.164062 -2.800781 15.375 -3.5625 C 14.257812 -4.632812 12.703125 -5.476562 10.703125 -6.09375 L 12.09375 -9.78125 C 14.988281 -8.78125 17.34375 -7.410156 19.15625 -5.671875 Z M 8.453125 3.34375 C 9.078125 3.945312 9.78125 4.316406 10.5625 4.453125 C 11.34375 4.597656 12.03125 4.476562 12.625 4.09375 L 13.671875 3 L 11.1875 0.609375 C 10 -0.546875 8.984375 -0.6875 8.140625 0.1875 C 7.703125 0.644531 7.503906 1.15625 7.546875 1.71875 C 7.597656 2.28125 7.898438 2.820312 8.453125 3.34375 Z M 8.453125 3.34375 "/></g></g></g><g fill="#0f151c" fill-opacity="1"><g transform="translate(275.500395, 110.393672)"><g><path d="M 21.609375 0.296875 C 23.023438 2.253906 23.515625 4.300781 23.078125 6.4375 C 22.640625 8.570312 21.347656 10.421875 19.203125 11.984375 C 17.097656 13.515625 14.976562 14.164062 12.84375 13.9375 C 10.71875 13.707031 8.945312 12.625 7.53125 10.6875 C 6.21875 8.875 5.859375 6.976562 6.453125 5 L 4.609375 6.34375 L 1.375 1.890625 L 20.4375 -11.96875 L 23.671875 -7.515625 L 16.625 -2.390625 C 18.6875 -2.316406 20.347656 -1.421875 21.609375 0.296875 Z M 10.203125 6.96875 C 10.867188 7.882812 11.75 8.382812 12.84375 8.46875 C 13.9375 8.550781 15.015625 8.207031 16.078125 7.4375 C 17.140625 6.664062 17.796875 5.75 18.046875 4.6875 C 18.296875 3.625 18.085938 2.632812 17.421875 1.71875 C 16.765625 0.820312 15.894531 0.328125 14.8125 0.234375 C 13.726562 0.148438 12.65625 0.492188 11.59375 1.265625 C 10.519531 2.046875 9.851562 2.960938 9.59375 4.015625 C 9.332031 5.066406 9.535156 6.050781 10.203125 6.96875 Z M 10.203125 6.96875 "/></g></g></g><g fill="#0f151c" fill-opacity="1"><g transform="translate(288.19215, 128.589942)"><g><path d="M 3.671875 6.921875 L 1.09375 2.078125 L 21.90625 -8.96875 L 24.484375 -4.125 Z M 3.671875 6.921875 "/></g></g></g><g fill="#0f151c" fill-opacity="1"><g transform="translate(293.494583, 137.939207)"><g><path d="M 19.734375 3.53125 C 20.691406 6.15625 20.71875 8.546875 19.8125 10.703125 C 18.914062 12.859375 17.234375 14.390625 14.765625 15.296875 C 12.304688 16.203125 10.023438 16.128906 7.921875 15.078125 C 5.816406 14.023438 4.285156 12.1875 3.328125 9.5625 C 2.359375 6.925781 2.332031 4.523438 3.25 2.359375 C 4.164062 0.191406 5.851562 -1.34375 8.3125 -2.25 C 10.78125 -3.15625 13.054688 -3.078125 15.140625 -2.015625 C 17.234375 -0.953125 18.765625 0.894531 19.734375 3.53125 Z M 15.65625 5.03125 C 15.257812 3.957031 14.550781 3.226562 13.53125 2.84375 C 12.519531 2.457031 11.394531 2.492188 10.15625 2.953125 C 8.90625 3.410156 8.019531 4.113281 7.5 5.0625 C 6.976562 6.007812 6.914062 7.019531 7.3125 8.09375 C 7.695312 9.144531 8.394531 9.863281 9.40625 10.25 C 10.414062 10.632812 11.546875 10.597656 12.796875 10.140625 C 14.035156 9.679688 14.914062 8.976562 15.4375 8.03125 C 15.96875 7.082031 16.039062 6.082031 15.65625 5.03125 Z M 15.65625 5.03125 "/></g></g></g><g fill="#0f151c" fill-opacity="1"><g transform="translate(300.285584, 157.674321)"><g/></g></g><g fill="#0f151c" fill-opacity="1"><g transform="translate(302.226708, 165.963847)"><g><path d="M 1.125 7.796875 L 0.3125 2.203125 L 22.296875 -0.96875 L 23.109375 4.625 Z M 1.125 7.796875 "/></g></g></g><g fill="#0f151c" fill-opacity="1"><g transform="translate(303.766749, 176.970912)"><g><path d="M 0.375 7.859375 L 0.109375 2.21875 L 22.296875 1.15625 L 22.5625 6.796875 Z M 0.375 7.859375 "/></g></g></g><g fill="#ff3131" fill-opacity="1"><g transform="translate(99.379261, 279.75286)"><g><path d="M 1.25 -12.421875 L 6.65625 -12.421875 C 8.238281 -12.421875 9.46875 -12.046875 10.34375 -11.296875 C 11.21875 -10.546875 11.65625 -9.476562 11.65625 -8.09375 C 11.65625 -6.632812 11.21875 -5.503906 10.34375 -4.703125 C 9.46875 -3.898438 8.238281 -3.5 6.65625 -3.5 L 4.40625 -3.5 L 4.40625 0 L 1.25 0 Z M 4.40625 -9.9375 L 4.40625 -5.984375 L 6.5 -5.984375 C 7.195312 -5.984375 7.734375 -6.15625 8.109375 -6.5 C 8.492188 -6.84375 8.6875 -7.335938 8.6875 -7.984375 C 8.6875 -8.628906 8.492188 -9.113281 8.109375 -9.4375 C 7.734375 -9.769531 7.195312 -9.9375 6.5 -9.9375 Z M 4.40625 -9.9375 "/></g></g></g><g fill="#ff3131" fill-opacity="1"><g transform="translate(111.795645, 279.75286)"><g><path d="M 8.734375 0 L 6.890625 -3.5 L 4.40625 -3.5 L 4.40625 0 L 1.25 0 L 1.25 -12.421875 L 6.796875 -12.421875 C 8.441406 -12.421875 9.710938 -12.046875 10.609375 -11.296875 C 11.515625 -10.546875 11.96875 -9.476562 11.96875 -8.09375 C 11.96875 -6.175781 11.210938 -4.84375 9.703125 -4.09375 L 12.3125 0 Z M 4.40625 -5.984375 L 6.796875 -5.984375 C 7.484375 -5.984375 8.015625 -6.15625 8.390625 -6.5 C 8.773438 -6.84375 8.96875 -7.335938 8.96875 -7.984375 C 8.96875 -8.628906 8.773438 -9.113281 8.390625 -9.4375 C 8.015625 -9.769531 7.484375 -9.9375 6.796875 -9.9375 L 4.40625 -9.9375 Z M 4.40625 -5.984375 "/></g></g></g><g fill="#ff3131" fill-opacity="1"><g transform="translate(124.992471, 279.75286)"><g><path d="M 7.140625 -12.53125 C 9.066406 -12.53125 10.664062 -11.925781 11.9375 -10.71875 C 13.21875 -9.519531 13.859375 -8.023438 13.859375 -6.234375 C 13.859375 -4.421875 13.21875 -2.90625 11.9375 -1.6875 C 10.65625 -0.46875 9.054688 0.140625 7.140625 0.140625 C 5.222656 0.140625 3.625 -0.460938 2.34375 -1.671875 C 1.0625 -2.890625 0.421875 -4.410156 0.421875 -6.234375 C 0.421875 -8.046875 1.0625 -9.546875 2.34375 -10.734375 C 3.625 -11.929688 5.222656 -12.53125 7.140625 -12.53125 Z M 7.171875 -9.890625 C 6.203125 -9.890625 5.375 -9.535156 4.6875 -8.828125 C 4 -8.128906 3.65625 -7.257812 3.65625 -6.21875 C 3.65625 -5.175781 4 -4.296875 4.6875 -3.578125 C 5.382812 -2.859375 6.210938 -2.5 7.171875 -2.5 C 8.128906 -2.5 8.941406 -2.859375 9.609375 -3.578125 C 10.273438 -4.296875 10.609375 -5.175781 10.609375 -6.21875 C 10.609375 -7.257812 10.273438 -8.128906 9.609375 -8.828125 C 8.941406 -9.535156 8.128906 -9.890625 7.171875 -9.890625 Z M 7.171875 -9.890625 "/></g></g></g><g fill="#ff3131" fill-opacity="1"><g transform="translate(139.626031, 279.75286)"><g><path d="M 10.453125 -9.9375 L 4.40625 -9.9375 L 4.40625 -7.0625 L 9.96875 -7.0625 L 9.96875 -4.578125 L 4.40625 -4.578125 L 4.40625 0 L 1.25 0 L 1.25 -12.421875 L 10.453125 -12.421875 Z M 10.453125 -9.9375 "/></g></g></g><g fill="#ff3131" fill-opacity="1"><g transform="translate(150.694376, 279.75286)"><g><path d="M 10.96875 -9.9375 L 4.40625 -9.9375 L 4.40625 -7.46875 L 10.328125 -7.46875 L 10.328125 -4.984375 L 4.40625 -4.984375 L 4.40625 -2.484375 L 11.171875 -2.484375 L 11.171875 0 L 1.25 0 L 1.25 -12.421875 L 10.96875 -12.421875 Z M 10.96875 -9.9375 "/></g></g></g><g fill="#ff3131" fill-opacity="1"><g transform="translate(163.004335, 279.75286)"><g><path d="M 6.015625 -12.5625 C 7.867188 -12.5625 9.503906 -12.101562 10.921875 -11.1875 L 9.734375 -8.71875 C 9.078125 -9.09375 8.375 -9.398438 7.625 -9.640625 C 6.882812 -9.890625 6.257812 -10.015625 5.75 -10.015625 C 4.84375 -10.015625 4.390625 -9.710938 4.390625 -9.109375 C 4.390625 -8.710938 4.613281 -8.394531 5.0625 -8.15625 C 5.507812 -7.925781 6.054688 -7.722656 6.703125 -7.546875 C 7.347656 -7.378906 7.992188 -7.171875 8.640625 -6.921875 C 9.285156 -6.679688 9.832031 -6.289062 10.28125 -5.75 C 10.726562 -5.207031 10.953125 -4.519531 10.953125 -3.6875 C 10.953125 -2.5 10.484375 -1.566406 9.546875 -0.890625 C 8.609375 -0.222656 7.421875 0.109375 5.984375 0.109375 C 4.953125 0.109375 3.929688 -0.0664062 2.921875 -0.421875 C 1.921875 -0.773438 1.046875 -1.257812 0.296875 -1.875 L 1.53125 -4.3125 C 2.15625 -3.769531 2.890625 -3.320312 3.734375 -2.96875 C 4.585938 -2.625 5.347656 -2.453125 6.015625 -2.453125 C 6.523438 -2.453125 6.921875 -2.539062 7.203125 -2.71875 C 7.484375 -2.90625 7.625 -3.175781 7.625 -3.53125 C 7.625 -3.875 7.460938 -4.160156 7.140625 -4.390625 C 6.816406 -4.617188 6.410156 -4.789062 5.921875 -4.90625 C 5.441406 -5.019531 4.914062 -5.171875 4.34375 -5.359375 C 3.78125 -5.546875 3.253906 -5.75 2.765625 -5.96875 C 2.285156 -6.195312 1.878906 -6.554688 1.546875 -7.046875 C 1.222656 -7.546875 1.0625 -8.140625 1.0625 -8.828125 C 1.0625 -9.960938 1.515625 -10.867188 2.421875 -11.546875 C 3.328125 -12.222656 4.523438 -12.5625 6.015625 -12.5625 Z M 6.015625 -12.5625 "/></g></g></g><g fill="#ff3131" fill-opacity="1"><g transform="translate(174.782179, 279.75286)"><g><path d="M 7.140625 -12.53125 C 9.066406 -12.53125 10.664062 -11.925781 11.9375 -10.71875 C 13.21875 -9.519531 13.859375 -8.023438 13.859375 -6.234375 C 13.859375 -4.421875 13.21875 -2.90625 11.9375 -1.6875 C 10.65625 -0.46875 9.054688 0.140625 7.140625 0.140625 C 5.222656 0.140625 3.625 -0.460938 2.34375 -1.671875 C 1.0625 -2.890625 0.421875 -4.410156 0.421875 -6.234375 C 0.421875 -8.046875 1.0625 -9.546875 2.34375 -10.734375 C 3.625 -11.929688 5.222656 -12.53125 7.140625 -12.53125 Z M 7.171875 -9.890625 C 6.203125 -9.890625 5.375 -9.535156 4.6875 -8.828125 C 4 -8.128906 3.65625 -7.257812 3.65625 -6.21875 C 3.65625 -5.175781 4 -4.296875 4.6875 -3.578125 C 5.382812 -2.859375 6.210938 -2.5 7.171875 -2.5 C 8.128906 -2.5 8.941406 -2.859375 9.609375 -3.578125 C 10.273438 -4.296875 10.609375 -5.175781 10.609375 -6.21875 C 10.609375 -7.257812 10.273438 -8.128906 9.609375 -8.828125 C 8.941406 -9.535156 8.128906 -9.890625 7.171875 -9.890625 Z M 7.171875 -9.890625 "/></g></g></g><g fill="#ff3131" fill-opacity="1"><g transform="translate(189.415736, 279.75286)"><g><path d="M 8.734375 0 L 6.890625 -3.5 L 4.40625 -3.5 L 4.40625 0 L 1.25 0 L 1.25 -12.421875 L 6.796875 -12.421875 C 8.441406 -12.421875 9.710938 -12.046875 10.609375 -11.296875 C 11.515625 -10.546875 11.96875 -9.476562 11.96875 -8.09375 C 11.96875 -6.175781 11.210938 -4.84375 9.703125 -4.09375 L 12.3125 0 Z M 4.40625 -5.984375 L 6.796875 -5.984375 C 7.484375 -5.984375 8.015625 -6.15625 8.390625 -6.5 C 8.773438 -6.84375 8.96875 -7.335938 8.96875 -7.984375 C 8.96875 -8.628906 8.773438 -9.113281 8.390625 -9.4375 C 8.015625 -9.769531 7.484375 -9.9375 6.796875 -9.9375 L 4.40625 -9.9375 Z M 4.40625 -5.984375 "/></g></g></g><g fill="#ff3131" fill-opacity="1"><g transform="translate(202.612562, 279.75286)"><g><path d="M 9.5 -2.296875 L 4.0625 -2.296875 L 3.15625 0 L -0.09375 0 L 5.265625 -12.421875 L 8.515625 -12.421875 L 13.75 0 L 10.390625 0 Z M 8.578125 -4.6875 L 6.796875 -9.28125 L 4.984375 -4.6875 Z M 8.578125 -4.6875 "/></g></g></g><g fill="#ff3131" fill-opacity="1"><g transform="translate(216.625304, 279.75286)"><g><path d="M 1.25 -12.421875 L 6.578125 -12.421875 C 8.535156 -12.421875 10.125 -11.847656 11.34375 -10.703125 C 12.570312 -9.554688 13.1875 -8.0625 13.1875 -6.21875 C 13.1875 -4.382812 12.5625 -2.890625 11.3125 -1.734375 C 10.070312 -0.578125 8.457031 0 6.46875 0 L 1.25 0 Z M 4.40625 -9.90625 L 4.40625 -2.515625 L 6.65625 -2.515625 C 7.625 -2.515625 8.414062 -2.851562 9.03125 -3.53125 C 9.65625 -4.21875 9.96875 -5.101562 9.96875 -6.1875 C 9.96875 -7.28125 9.640625 -8.171875 8.984375 -8.859375 C 8.335938 -9.554688 7.515625 -9.90625 6.515625 -9.90625 Z M 4.40625 -9.90625 "/></g></g></g><g fill="#ff3131" fill-opacity="1"><g transform="translate(230.584843, 279.75286)"><g><path d="M 7.140625 -12.53125 C 9.066406 -12.53125 10.664062 -11.925781 11.9375 -10.71875 C 13.21875 -9.519531 13.859375 -8.023438 13.859375 -6.234375 C 13.859375 -4.421875 13.21875 -2.90625 11.9375 -1.6875 C 10.65625 -0.46875 9.054688 0.140625 7.140625 0.140625 C 5.222656 0.140625 3.625 -0.460938 2.34375 -1.671875 C 1.0625 -2.890625 0.421875 -4.410156 0.421875 -6.234375 C 0.421875 -8.046875 1.0625 -9.546875 2.34375 -10.734375 C 3.625 -11.929688 5.222656 -12.53125 7.140625 -12.53125 Z M 7.171875 -9.890625 C 6.203125 -9.890625 5.375 -9.535156 4.6875 -8.828125 C 4 -8.128906 3.65625 -7.257812 3.65625 -6.21875 C 3.65625 -5.175781 4 -4.296875 4.6875 -3.578125 C 5.382812 -2.859375 6.210938 -2.5 7.171875 -2.5 C 8.128906 -2.5 8.941406 -2.859375 9.609375 -3.578125 C 10.273438 -4.296875 10.609375 -5.175781 10.609375 -6.21875 C 10.609375 -7.257812 10.273438 -8.128906 9.609375 -8.828125 C 8.941406 -9.535156 8.128906 -9.890625 7.171875 -9.890625 Z M 7.171875 -9.890625 "/></g></g></g><g fill="#ff3131" fill-opacity="1"><g transform="translate(245.218408, 279.75286)"><g/></g></g><g fill="#ff3131" fill-opacity="1"><g transform="translate(249.688467, 279.75286)"><g><path d="M 1.25 -12.421875 L 6.578125 -12.421875 C 8.535156 -12.421875 10.125 -11.847656 11.34375 -10.703125 C 12.570312 -9.554688 13.1875 -8.0625 13.1875 -6.21875 C 13.1875 -4.382812 12.5625 -2.890625 11.3125 -1.734375 C 10.070312 -0.578125 8.457031 0 6.46875 0 L 1.25 0 Z M 4.40625 -9.90625 L 4.40625 -2.515625 L 6.65625 -2.515625 C 7.625 -2.515625 8.414062 -2.851562 9.03125 -3.53125 C 9.65625 -4.21875 9.96875 -5.101562 9.96875 -6.1875 C 9.96875 -7.28125 9.640625 -8.171875 8.984375 -8.859375 C 8.335938 -9.554688 7.515625 -9.90625 6.515625 -9.90625 Z M 4.40625 -9.90625 "/></g></g></g><g fill="#ff3131" fill-opacity="1"><g transform="translate(263.648006, 279.75286)"><g><path d="M 10.96875 -9.9375 L 4.40625 -9.9375 L 4.40625 -7.46875 L 10.328125 -7.46875 L 10.328125 -4.984375 L 4.40625 -4.984375 L 4.40625 -2.484375 L 11.171875 -2.484375 L 11.171875 0 L 1.25 0 L 1.25 -12.421875 L 10.96875 -12.421875 Z M 10.96875 -9.9375 "/></g></g></g><g fill="#ff3131" fill-opacity="1"><g transform="translate(97.563761, 304.430799)"><g><path d="M 10.96875 -9.9375 L 4.40625 -9.9375 L 4.40625 -7.46875 L 10.328125 -7.46875 L 10.328125 -4.984375 L 4.40625 -4.984375 L 4.40625 -2.484375 L 11.171875 -2.484375 L 11.171875 0 L 1.25 0 L 1.25 -12.421875 L 10.96875 -12.421875 Z M 10.96875 -9.9375 "/></g></g></g><g fill="#ff3131" fill-opacity="1"><g transform="translate(109.873721, 304.430799)"><g><path d="M 1.25 -12.421875 L 6.578125 -12.421875 C 8.535156 -12.421875 10.125 -11.847656 11.34375 -10.703125 C 12.570312 -9.554688 13.1875 -8.0625 13.1875 -6.21875 C 13.1875 -4.382812 12.5625 -2.890625 11.3125 -1.734375 C 10.070312 -0.578125 8.457031 0 6.46875 0 L 1.25 0 Z M 4.40625 -9.90625 L 4.40625 -2.515625 L 6.65625 -2.515625 C 7.625 -2.515625 8.414062 -2.851562 9.03125 -3.53125 C 9.65625 -4.21875 9.96875 -5.101562 9.96875 -6.1875 C 9.96875 -7.28125 9.640625 -8.171875 8.984375 -8.859375 C 8.335938 -9.554688 7.515625 -9.90625 6.515625 -9.90625 Z M 4.40625 -9.90625 "/></g></g></g><g fill="#ff3131" fill-opacity="1"><g transform="translate(123.833261, 304.430799)"><g><path d="M 12.421875 -12.421875 L 12.421875 -5.21875 C 12.421875 -3.570312 11.910156 -2.265625 10.890625 -1.296875 C 9.878906 -0.335938 8.503906 0.140625 6.765625 0.140625 C 5.015625 0.140625 3.617188 -0.335938 2.578125 -1.296875 C 1.546875 -2.265625 1.03125 -3.570312 1.03125 -5.21875 L 1.03125 -12.421875 L 4.1875 -12.421875 L 4.1875 -5.21875 C 4.1875 -4.382812 4.425781 -3.722656 4.90625 -3.234375 C 5.382812 -2.742188 6.007812 -2.5 6.78125 -2.5 C 7.539062 -2.5 8.144531 -2.738281 8.59375 -3.21875 C 9.050781 -3.707031 9.28125 -4.375 9.28125 -5.21875 L 9.28125 -12.421875 Z M 12.421875 -12.421875 "/></g></g></g><g fill="#ff3131" fill-opacity="1"><g transform="translate(137.633158, 304.430799)"><g><path d="M 7.0625 -12.53125 C 7.988281 -12.53125 8.894531 -12.335938 9.78125 -11.953125 C 10.675781 -11.578125 11.4375 -11.070312 12.0625 -10.4375 L 10.234375 -8.265625 C 9.835938 -8.765625 9.359375 -9.160156 8.796875 -9.453125 C 8.234375 -9.742188 7.675781 -9.890625 7.125 -9.890625 C 6.132812 -9.890625 5.304688 -9.539062 4.640625 -8.84375 C 3.984375 -8.15625 3.65625 -7.300781 3.65625 -6.28125 C 3.65625 -5.238281 3.984375 -4.367188 4.640625 -3.671875 C 5.304688 -2.972656 6.132812 -2.625 7.125 -2.625 C 7.644531 -2.625 8.179688 -2.753906 8.734375 -3.015625 C 9.296875 -3.273438 9.796875 -3.628906 10.234375 -4.078125 L 12.09375 -2.125 C 11.414062 -1.4375 10.617188 -0.882812 9.703125 -0.46875 C 8.785156 -0.0625 7.867188 0.140625 6.953125 0.140625 C 5.085938 0.140625 3.53125 -0.46875 2.28125 -1.6875 C 1.039062 -2.90625 0.421875 -4.425781 0.421875 -6.25 C 0.421875 -8.03125 1.050781 -9.519531 2.3125 -10.71875 C 3.582031 -11.925781 5.164062 -12.53125 7.0625 -12.53125 Z M 7.0625 -12.53125 "/></g></g></g><g fill="#ff3131" fill-opacity="1"><g transform="translate(150.262389, 304.430799)"><g><path d="M 9.5 -2.296875 L 4.0625 -2.296875 L 3.15625 0 L -0.09375 0 L 5.265625 -12.421875 L 8.515625 -12.421875 L 13.75 0 L 10.390625 0 Z M 8.578125 -4.6875 L 6.796875 -9.28125 L 4.984375 -4.6875 Z M 8.578125 -4.6875 "/></g></g></g><g fill="#ff3131" fill-opacity="1"><g transform="translate(164.275136, 304.430799)"><g><path d="M 7.0625 -12.53125 C 7.988281 -12.53125 8.894531 -12.335938 9.78125 -11.953125 C 10.675781 -11.578125 11.4375 -11.070312 12.0625 -10.4375 L 10.234375 -8.265625 C 9.835938 -8.765625 9.359375 -9.160156 8.796875 -9.453125 C 8.234375 -9.742188 7.675781 -9.890625 7.125 -9.890625 C 6.132812 -9.890625 5.304688 -9.539062 4.640625 -8.84375 C 3.984375 -8.15625 3.65625 -7.300781 3.65625 -6.28125 C 3.65625 -5.238281 3.984375 -4.367188 4.640625 -3.671875 C 5.304688 -2.972656 6.132812 -2.625 7.125 -2.625 C 7.644531 -2.625 8.179688 -2.753906 8.734375 -3.015625 C 9.296875 -3.273438 9.796875 -3.628906 10.234375 -4.078125 L 12.09375 -2.125 C 11.414062 -1.4375 10.617188 -0.882812 9.703125 -0.46875 C 8.785156 -0.0625 7.867188 0.140625 6.953125 0.140625 C 5.085938 0.140625 3.53125 -0.46875 2.28125 -1.6875 C 1.039062 -2.90625 0.421875 -4.425781 0.421875 -6.25 C 0.421875 -8.03125 1.050781 -9.519531 2.3125 -10.71875 C 3.582031 -11.925781 5.164062 -12.53125 7.0625 -12.53125 Z M 7.0625 -12.53125 "/></g></g></g><g fill="#ff3131" fill-opacity="1"><g transform="translate(176.904367, 304.430799)"><g><path d="M 4.40625 0 L 1.25 0 L 1.25 -12.421875 L 4.40625 -12.421875 Z M 4.40625 0 "/></g></g></g><g fill="#ff3131" fill-opacity="1"><g transform="translate(182.899836, 304.430799)"><g><path d="M 7.140625 -12.53125 C 9.066406 -12.53125 10.664062 -11.925781 11.9375 -10.71875 C 13.21875 -9.519531 13.859375 -8.023438 13.859375 -6.234375 C 13.859375 -4.421875 13.21875 -2.90625 11.9375 -1.6875 C 10.65625 -0.46875 9.054688 0.140625 7.140625 0.140625 C 5.222656 0.140625 3.625 -0.460938 2.34375 -1.671875 C 1.0625 -2.890625 0.421875 -4.410156 0.421875 -6.234375 C 0.421875 -8.046875 1.0625 -9.546875 2.34375 -10.734375 C 3.625 -11.929688 5.222656 -12.53125 7.140625 -12.53125 Z M 7.171875 -9.890625 C 6.203125 -9.890625 5.375 -9.535156 4.6875 -8.828125 C 4 -8.128906 3.65625 -7.257812 3.65625 -6.21875 C 3.65625 -5.175781 4 -4.296875 4.6875 -3.578125 C 5.382812 -2.859375 6.210938 -2.5 7.171875 -2.5 C 8.128906 -2.5 8.941406 -2.859375 9.609375 -3.578125 C 10.273438 -4.296875 10.609375 -5.175781 10.609375 -6.21875 C 10.609375 -7.257812 10.273438 -8.128906 9.609375 -8.828125 C 8.941406 -9.535156 8.128906 -9.890625 7.171875 -9.890625 Z M 7.171875 -9.890625 "/></g></g></g><g fill="#ff3131" fill-opacity="1"><g transform="translate(197.533393, 304.430799)"><g><path d="M 12.703125 0 L 9.921875 0 L 4.203125 -7.65625 L 4.203125 0 L 1.25 0 L 1.25 -12.421875 L 4.03125 -12.421875 L 9.765625 -4.75 L 9.765625 -12.421875 L 12.703125 -12.421875 Z M 12.703125 0 "/></g></g></g><g fill="#ff3131" fill-opacity="1"><g transform="translate(211.829933, 304.430799)"><g/></g></g><g fill="#ff3131" fill-opacity="1"><g transform="translate(216.299992, 304.430799)"><g><path d="M 10.453125 -9.9375 L 4.40625 -9.9375 L 4.40625 -7.0625 L 9.96875 -7.0625 L 9.96875 -4.578125 L 4.40625 -4.578125 L 4.40625 0 L 1.25 0 L 1.25 -12.421875 L 10.453125 -12.421875 Z M 10.453125 -9.9375 "/></g></g></g><g fill="#ff3131" fill-opacity="1"><g transform="translate(227.368338, 304.430799)"><g><path d="M 4.40625 0 L 1.25 0 L 1.25 -12.421875 L 4.40625 -12.421875 Z M 4.40625 0 "/></g></g></g><g fill="#ff3131" fill-opacity="1"><g transform="translate(233.363815, 304.430799)"><g><path d="M 6.015625 -12.5625 C 7.867188 -12.5625 9.503906 -12.101562 10.921875 -11.1875 L 9.734375 -8.71875 C 9.078125 -9.09375 8.375 -9.398438 7.625 -9.640625 C 6.882812 -9.890625 6.257812 -10.015625 5.75 -10.015625 C 4.84375 -10.015625 4.390625 -9.710938 4.390625 -9.109375 C 4.390625 -8.710938 4.613281 -8.394531 5.0625 -8.15625 C 5.507812 -7.925781 6.054688 -7.722656 6.703125 -7.546875 C 7.347656 -7.378906 7.992188 -7.171875 8.640625 -6.921875 C 9.285156 -6.679688 9.832031 -6.289062 10.28125 -5.75 C 10.726562 -5.207031 10.953125 -4.519531 10.953125 -3.6875 C 10.953125 -2.5 10.484375 -1.566406 9.546875 -0.890625 C 8.609375 -0.222656 7.421875 0.109375 5.984375 0.109375 C 4.953125 0.109375 3.929688 -0.0664062 2.921875 -0.421875 C 1.921875 -0.773438 1.046875 -1.257812 0.296875 -1.875 L 1.53125 -4.3125 C 2.15625 -3.769531 2.890625 -3.320312 3.734375 -2.96875 C 4.585938 -2.625 5.347656 -2.453125 6.015625 -2.453125 C 6.523438 -2.453125 6.921875 -2.539062 7.203125 -2.71875 C 7.484375 -2.90625 7.625 -3.175781 7.625 -3.53125 C 7.625 -3.875 7.460938 -4.160156 7.140625 -4.390625 C 6.816406 -4.617188 6.410156 -4.789062 5.921875 -4.90625 C 5.441406 -5.019531 4.914062 -5.171875 4.34375 -5.359375 C 3.78125 -5.546875 3.253906 -5.75 2.765625 -5.96875 C 2.285156 -6.195312 1.878906 -6.554688 1.546875 -7.046875 C 1.222656 -7.546875 1.0625 -8.140625 1.0625 -8.828125 C 1.0625 -9.960938 1.515625 -10.867188 2.421875 -11.546875 C 3.328125 -12.222656 4.523438 -12.5625 6.015625 -12.5625 Z M 6.015625 -12.5625 "/></g></g></g><g fill="#ff3131" fill-opacity="1"><g transform="translate(245.141654, 304.430799)"><g><path d="M 4.40625 0 L 1.25 0 L 1.25 -12.421875 L 4.40625 -12.421875 Z M 4.40625 0 "/></g></g></g><g fill="#ff3131" fill-opacity="1"><g transform="translate(251.137123, 304.430799)"><g><path d="M 7.0625 -12.53125 C 7.988281 -12.53125 8.894531 -12.335938 9.78125 -11.953125 C 10.675781 -11.578125 11.4375 -11.070312 12.0625 -10.4375 L 10.234375 -8.265625 C 9.835938 -8.765625 9.359375 -9.160156 8.796875 -9.453125 C 8.234375 -9.742188 7.675781 -9.890625 7.125 -9.890625 C 6.132812 -9.890625 5.304688 -9.539062 4.640625 -8.84375 C 3.984375 -8.15625 3.65625 -7.300781 3.65625 -6.28125 C 3.65625 -5.238281 3.984375 -4.367188 4.640625 -3.671875 C 5.304688 -2.972656 6.132812 -2.625 7.125 -2.625 C 7.644531 -2.625 8.179688 -2.753906 8.734375 -3.015625 C 9.296875 -3.273438 9.796875 -3.628906 10.234375 -4.078125 L 12.09375 -2.125 C 11.414062 -1.4375 10.617188 -0.882812 9.703125 -0.46875 C 8.785156 -0.0625 7.867188 0.140625 6.953125 0.140625 C 5.085938 0.140625 3.53125 -0.46875 2.28125 -1.6875 C 1.039062 -2.90625 0.421875 -4.425781 0.421875 -6.25 C 0.421875 -8.03125 1.050781 -9.519531 2.3125 -10.71875 C 3.582031 -11.925781 5.164062 -12.53125 7.0625 -12.53125 Z M 7.0625 -12.53125 "/></g></g></g><g fill="#ff3131" fill-opacity="1"><g transform="translate(263.766354, 304.430799)"><g><path d="M 9.5 -2.296875 L 4.0625 -2.296875 L 3.15625 0 L -0.09375 0 L 5.265625 -12.421875 L 8.515625 -12.421875 L 13.75 0 L 10.390625 0 Z M 8.578125 -4.6875 L 6.796875 -9.28125 L 4.984375 -4.6875 Z M 8.578125 -4.6875 "/></g></g></g><g clip-path="url(#c1ac58d2da)"><path fill="#000000" d="M 216.882812 264.316406 L 164.507812 264.316406 C 164.125 264.316406 163.761719 264.242188 163.410156 264.097656 C 163.058594 263.949219 162.746094 263.742188 162.476562 263.472656 C 162.207031 263.203125 162 262.894531 161.855469 262.542969 C 161.707031 262.191406 161.636719 261.824219 161.632812 261.445312 L 161.632812 249.578125 C 161.632812 249.199219 161.707031 248.832031 161.851562 248.476562 C 161.996094 248.125 162.203125 247.8125 162.472656 247.542969 C 162.742188 247.273438 163.054688 247.066406 163.40625 246.917969 C 163.757812 246.773438 164.125 246.699219 164.507812 246.699219 L 172.519531 246.699219 L 172.519531 147.097656 L 164.507812 147.097656 C 164.125 147.097656 163.757812 147.023438 163.40625 146.878906 C 163.054688 146.730469 162.742188 146.523438 162.472656 146.253906 C 162.203125 145.984375 161.996094 145.671875 161.851562 145.320312 C 161.707031 144.964844 161.632812 144.597656 161.632812 144.21875 L 161.632812 132.351562 C 161.632812 131.972656 161.707031 131.605469 161.851562 131.253906 C 162 130.902344 162.207031 130.589844 162.476562 130.320312 C 162.746094 130.050781 163.054688 129.84375 163.40625 129.699219 C 163.761719 129.554688 164.125 129.480469 164.507812 129.480469 L 216.882812 129.480469 C 217.261719 129.480469 217.628906 129.554688 217.980469 129.699219 C 218.332031 129.84375 218.644531 130.050781 218.914062 130.320312 C 219.183594 130.589844 219.390625 130.902344 219.535156 131.253906 C 219.683594 131.605469 219.753906 131.972656 219.753906 132.351562 L 219.753906 144.21875 C 219.757812 144.597656 219.683594 144.964844 219.539062 145.320312 C 219.394531 145.671875 219.183594 145.984375 218.917969 146.253906 C 218.648438 146.523438 218.335938 146.730469 217.984375 146.878906 C 217.632812 147.023438 217.265625 147.097656 216.882812 147.097656 L 208.867188 147.097656 L 208.867188 246.730469 L 216.871094 246.730469 C 217.253906 246.730469 217.621094 246.800781 217.972656 246.949219 C 218.324219 247.09375 218.636719 247.304688 218.902344 247.574219 C 219.171875 247.84375 219.382812 248.15625 219.527344 248.507812 C 219.671875 248.859375 219.746094 249.226562 219.742188 249.609375 L 219.742188 261.445312 C 219.742188 261.824219 219.667969 262.1875 219.523438 262.539062 C 219.378906 262.890625 219.171875 263.199219 218.90625 263.46875 C 218.636719 263.738281 218.328125 263.945312 217.976562 264.09375 C 217.628906 264.242188 217.261719 264.316406 216.882812 264.316406 Z M 216.882812 264.316406 " fill-opacity="1" fill-rule="nonzero"/></g><g clip-path="url(#3da45768ab)"><path fill="#000000" d="M 158.113281 264.808594 L 210.488281 264.808594 C 210.867188 264.804688 211.234375 264.734375 211.585938 264.585938 C 211.9375 264.441406 212.246094 264.234375 212.515625 263.964844 C 212.785156 263.695312 212.992188 263.382812 213.140625 263.03125 C 213.285156 262.679688 213.359375 262.316406 213.359375 261.933594 L 213.359375 250.070312 C 213.359375 249.6875 213.289062 249.320312 213.144531 248.96875 C 212.996094 248.613281 212.789062 248.304688 212.519531 248.035156 C 212.25 247.761719 211.941406 247.554688 211.585938 247.410156 C 211.234375 247.261719 210.867188 247.191406 210.488281 247.191406 L 202.472656 247.191406 L 202.472656 147.585938 L 210.488281 147.585938 C 210.867188 147.585938 211.234375 147.511719 211.585938 147.367188 C 211.941406 147.222656 212.25 147.011719 212.519531 146.742188 C 212.789062 146.472656 212.996094 146.160156 213.144531 145.808594 C 213.289062 145.457031 213.359375 145.089844 213.359375 144.707031 L 213.359375 132.84375 C 213.359375 132.460938 213.285156 132.09375 213.140625 131.742188 C 212.996094 131.390625 212.789062 131.082031 212.519531 130.8125 C 212.25 130.542969 211.9375 130.335938 211.585938 130.1875 C 211.234375 130.042969 210.867188 129.96875 210.488281 129.96875 L 158.113281 129.96875 C 157.730469 129.96875 157.363281 130.042969 157.011719 130.1875 C 156.660156 130.335938 156.351562 130.542969 156.082031 130.8125 C 155.8125 131.082031 155.605469 131.390625 155.457031 131.742188 C 155.3125 132.09375 155.238281 132.460938 155.238281 132.84375 L 155.238281 144.707031 C 155.238281 145.089844 155.3125 145.457031 155.457031 145.808594 C 155.601562 146.160156 155.808594 146.472656 156.078125 146.742188 C 156.347656 147.011719 156.660156 147.222656 157.011719 147.367188 C 157.363281 147.511719 157.730469 147.585938 158.113281 147.585938 L 166.125 147.585938 L 166.125 247.21875 L 158.125 247.21875 C 157.742188 247.21875 157.375 247.292969 157.023438 247.4375 C 156.671875 247.585938 156.359375 247.792969 156.089844 248.0625 C 155.820312 248.332031 155.613281 248.644531 155.46875 248.996094 C 155.324219 249.347656 155.25 249.714844 155.25 250.097656 L 155.25 261.933594 C 155.25 262.3125 155.324219 262.679688 155.46875 263.03125 C 155.613281 263.378906 155.820312 263.691406 156.089844 263.960938 C 156.359375 264.230469 156.667969 264.4375 157.015625 264.582031 C 157.367188 264.730469 157.730469 264.804688 158.113281 264.808594 Z M 158.113281 264.808594 " fill-opacity="1" fill-rule="nonzero"/></g><g clip-path="url(#a2a29d4054)"><path fill="#000000" d="M 205.808594 115.53125 C 205.808594 116.128906 205.777344 116.722656 205.71875 117.316406 C 205.660156 117.910156 205.574219 118.5 205.457031 119.082031 C 205.339844 119.667969 205.195312 120.246094 205.023438 120.816406 C 204.851562 121.386719 204.648438 121.945312 204.421875 122.496094 C 204.191406 123.046875 203.9375 123.585938 203.65625 124.113281 C 203.375 124.636719 203.070312 125.148438 202.738281 125.644531 C 202.40625 126.140625 202.054688 126.617188 201.675781 127.078125 C 201.296875 127.539062 200.898438 127.980469 200.476562 128.402344 C 200.054688 128.824219 199.613281 129.226562 199.152344 129.601562 C 198.691406 129.980469 198.210938 130.335938 197.71875 130.667969 C 197.222656 131 196.710938 131.304688 196.183594 131.585938 C 195.660156 131.867188 195.121094 132.121094 194.570312 132.347656 C 194.019531 132.578125 193.457031 132.777344 192.886719 132.949219 C 192.316406 133.125 191.738281 133.269531 191.15625 133.386719 C 190.570312 133.5 189.980469 133.589844 189.386719 133.648438 C 188.792969 133.707031 188.199219 133.734375 187.605469 133.734375 C 187.007812 133.734375 186.414062 133.707031 185.820312 133.648438 C 185.226562 133.589844 184.636719 133.5 184.050781 133.386719 C 183.46875 133.269531 182.890625 133.125 182.320312 132.949219 C 181.75 132.777344 181.1875 132.578125 180.636719 132.347656 C 180.085938 132.121094 179.550781 131.867188 179.023438 131.585938 C 178.496094 131.304688 177.988281 131 177.492188 130.667969 C 176.996094 130.335938 176.515625 129.980469 176.054688 129.601562 C 175.59375 129.226562 175.152344 128.824219 174.734375 128.402344 C 174.3125 127.980469 173.910156 127.539062 173.53125 127.078125 C 173.15625 126.617188 172.800781 126.140625 172.46875 125.644531 C 172.136719 125.148438 171.832031 124.636719 171.550781 124.113281 C 171.269531 123.585938 171.015625 123.046875 170.785156 122.496094 C 170.558594 121.945312 170.359375 121.386719 170.183594 120.816406 C 170.011719 120.246094 169.867188 119.667969 169.75 119.082031 C 169.632812 118.5 169.546875 117.910156 169.488281 117.316406 C 169.429688 116.722656 169.402344 116.128906 169.402344 115.53125 C 169.402344 114.9375 169.429688 114.339844 169.488281 113.746094 C 169.546875 113.15625 169.632812 112.566406 169.75 111.980469 C 169.867188 111.394531 170.011719 110.820312 170.183594 110.246094 C 170.359375 109.675781 170.558594 109.117188 170.785156 108.566406 C 171.015625 108.015625 171.269531 107.476562 171.550781 106.949219 C 171.832031 106.425781 172.136719 105.914062 172.46875 105.417969 C 172.800781 104.921875 173.15625 104.445312 173.53125 103.984375 C 173.910156 103.523438 174.3125 103.082031 174.734375 102.660156 C 175.152344 102.238281 175.59375 101.839844 176.054688 101.460938 C 176.515625 101.082031 176.996094 100.726562 177.492188 100.398438 C 177.988281 100.066406 178.496094 99.757812 179.023438 99.476562 C 179.550781 99.199219 180.085938 98.941406 180.636719 98.714844 C 181.1875 98.488281 181.75 98.285156 182.320312 98.113281 C 182.890625 97.941406 183.46875 97.796875 184.050781 97.679688 C 184.636719 97.5625 185.226562 97.476562 185.820312 97.417969 C 186.414062 97.359375 187.007812 97.328125 187.605469 97.328125 C 188.199219 97.328125 188.792969 97.359375 189.386719 97.417969 C 189.980469 97.476562 190.570312 97.5625 191.15625 97.679688 C 191.738281 97.796875 192.316406 97.941406 192.886719 98.113281 C 193.457031 98.285156 194.019531 98.488281 194.570312 98.714844 C 195.121094 98.941406 195.660156 99.199219 196.183594 99.476562 C 196.710938 99.757812 197.222656 100.066406 197.71875 100.398438 C 198.210938 100.726562 198.691406 101.082031 199.152344 101.460938 C 199.613281 101.839844 200.054688 102.238281 200.476562 102.660156 C 200.898438 103.082031 201.296875 103.523438 201.675781 103.984375 C 202.054688 104.445312 202.40625 104.921875 202.738281 105.417969 C 203.070312 105.914062 203.375 106.425781 203.65625 106.949219 C 203.9375 107.476562 204.191406 108.015625 204.421875 108.566406 C 204.648438 109.117188 204.851562 109.675781 205.023438 110.246094 C 205.195312 110.820312 205.339844 111.394531 205.457031 111.980469 C 205.574219 112.566406 205.660156 113.15625 205.71875 113.746094 C 205.777344 114.339844 205.808594 114.9375 205.808594 115.53125 Z M 205.808594 115.53125 " fill-opacity="1" fill-rule="nonzero"/></g></svg>