<svg xmlns="http://www.w3.org/2000/svg" xmlns:xlink="http://www.w3.org/1999/xlink" width="500" zoomAndPan="magnify" viewBox="0 0 375 374.999991" height="500" preserveAspectRatio="xMidYMid meet" version="1.0"><defs><g/><clipPath id="98d94926fa"><path d="M 23.714844 23.714844 L 351.464844 23.714844 L 351.464844 351.464844 L 23.714844 351.464844 Z M 23.714844 23.714844 " clip-rule="nonzero"/></clipPath><clipPath id="cb51b794d8"><path d="M 22.335938 22.335938 L 352.664062 22.335938 L 352.664062 352.664062 L 22.335938 352.664062 Z M 22.335938 22.335938 " clip-rule="nonzero"/></clipPath><clipPath id="e119c0fc91"><path d="M 187.5 352.664062 C 143.402344 352.664062 101.878906 335.503906 70.722656 304.277344 C 39.496094 273.121094 22.335938 231.597656 22.335938 187.5 C 22.335938 143.402344 39.496094 101.878906 70.722656 70.722656 C 101.878906 39.496094 143.402344 22.335938 187.5 22.335938 C 231.597656 22.335938 273.121094 39.496094 304.277344 70.722656 C 335.503906 101.945312 352.664062 143.402344 352.664062 187.5 C 352.664062 231.597656 335.503906 273.121094 304.277344 304.277344 C 273.121094 335.503906 231.597656 352.664062 187.5 352.664062 Z M 187.5 32.234375 C 146.042969 32.234375 107.03125 48.410156 77.71875 77.71875 C 48.410156 107.03125 32.234375 146.042969 32.234375 187.5 C 32.234375 228.957031 48.410156 267.96875 77.71875 297.28125 C 107.03125 326.589844 146.042969 342.765625 187.5 342.765625 C 228.957031 342.765625 267.96875 326.589844 297.28125 297.28125 C 326.589844 267.96875 342.765625 228.957031 342.765625 187.5 C 342.765625 146.042969 326.589844 107.03125 297.28125 77.71875 C 267.96875 48.410156 228.957031 32.234375 187.5 32.234375 Z M 187.5 32.234375 " clip-rule="nonzero"/></clipPath><clipPath id="00f8f8a61b"><path d="M 161.074219 136.898438 L 184.324219 136.898438 L 184.324219 256.148438 L 161.074219 256.148438 Z M 161.074219 136.898438 " clip-rule="nonzero"/></clipPath><clipPath id="e38ceb052a"><path d="M 190.871094 137.386719 L 213.921875 137.386719 L 213.921875 256.636719 L 190.871094 256.636719 Z M 190.871094 137.386719 " clip-rule="nonzero"/></clipPath><clipPath id="612e3bd6de"><path d="M 169.402344 97.328125 L 205.402344 97.328125 L 205.402344 133.328125 L 169.402344 133.328125 Z M 169.402344 97.328125 " clip-rule="nonzero"/></clipPath></defs><g clip-path="url(#98d94926fa)"><path fill="#ffffff" d="M 351.464844 187.589844 C 351.464844 190.273438 351.398438 192.953125 351.269531 195.632812 C 351.136719 198.3125 350.941406 200.984375 350.675781 203.652344 C 350.414062 206.324219 350.085938 208.984375 349.691406 211.636719 C 349.300781 214.289062 348.839844 216.929688 348.316406 219.5625 C 347.792969 222.191406 347.207031 224.808594 346.554688 227.410156 C 345.902344 230.011719 345.1875 232.59375 344.410156 235.160156 C 343.632812 237.726562 342.789062 240.273438 341.886719 242.800781 C 340.984375 245.324219 340.019531 247.824219 338.992188 250.304688 C 337.964844 252.78125 336.878906 255.230469 335.730469 257.65625 C 334.585938 260.082031 333.378906 262.476562 332.117188 264.839844 C 330.851562 267.207031 329.53125 269.539062 328.152344 271.839844 C 326.773438 274.140625 325.339844 276.40625 323.847656 278.636719 C 322.359375 280.863281 320.8125 283.058594 319.214844 285.210938 C 317.617188 287.367188 315.96875 289.480469 314.269531 291.550781 C 312.566406 293.625 310.816406 295.65625 309.015625 297.644531 C 307.214844 299.628906 305.363281 301.570312 303.46875 303.46875 C 301.570312 305.363281 299.628906 307.214844 297.644531 309.015625 C 295.65625 310.816406 293.625 312.566406 291.550781 314.269531 C 289.480469 315.96875 287.367188 317.617188 285.210938 319.214844 C 283.058594 320.8125 280.863281 322.359375 278.636719 323.847656 C 276.40625 325.339844 274.140625 326.773438 271.839844 328.152344 C 269.539062 329.53125 267.207031 330.851562 264.839844 332.117188 C 262.476562 333.378906 260.082031 334.585938 257.65625 335.730469 C 255.230469 336.878906 252.78125 337.964844 250.304688 338.992188 C 247.824219 340.019531 245.324219 340.984375 242.800781 341.886719 C 240.273438 342.789062 237.726562 343.632812 235.160156 344.410156 C 232.59375 345.1875 230.011719 345.902344 227.410156 346.554688 C 224.808594 347.207031 222.191406 347.792969 219.5625 348.316406 C 216.929688 348.839844 214.289062 349.300781 211.636719 349.691406 C 208.984375 350.085938 206.324219 350.414062 203.652344 350.675781 C 200.984375 350.941406 198.3125 351.136719 195.632812 351.269531 C 192.953125 351.398438 190.273438 351.464844 187.589844 351.464844 C 184.910156 351.464844 182.230469 351.398438 179.550781 351.269531 C 176.871094 351.136719 174.199219 350.941406 171.527344 350.675781 C 168.859375 350.414062 166.199219 350.085938 163.546875 349.691406 C 160.894531 349.300781 158.25 348.839844 155.621094 348.316406 C 152.992188 347.792969 150.375 347.207031 147.773438 346.554688 C 145.171875 345.902344 142.585938 345.1875 140.019531 344.410156 C 137.453125 343.632812 134.910156 342.789062 132.382812 341.886719 C 129.859375 340.984375 127.355469 340.019531 124.878906 338.992188 C 122.402344 337.964844 119.949219 336.878906 117.527344 335.730469 C 115.101562 334.585938 112.707031 333.378906 110.339844 332.117188 C 107.976562 330.851562 105.644531 329.53125 103.34375 328.152344 C 101.042969 326.773438 98.777344 325.339844 96.546875 323.847656 C 94.316406 322.359375 92.125 320.8125 89.972656 319.214844 C 87.816406 317.617188 85.703125 315.96875 83.628906 314.269531 C 81.558594 312.566406 79.527344 310.816406 77.539062 309.015625 C 75.550781 307.214844 73.609375 305.363281 71.714844 303.46875 C 69.816406 301.570312 67.96875 299.628906 66.167969 297.644531 C 64.367188 295.65625 62.617188 293.625 60.914062 291.550781 C 59.210938 289.480469 57.5625 287.367188 55.964844 285.210938 C 54.367188 283.058594 52.824219 280.863281 51.335938 278.636719 C 49.84375 276.40625 48.410156 274.140625 47.03125 271.839844 C 45.652344 269.539062 44.332031 267.207031 43.066406 264.839844 C 41.800781 262.476562 40.597656 260.082031 39.449219 257.65625 C 38.304688 255.230469 37.214844 252.78125 36.191406 250.304688 C 35.164062 247.824219 34.199219 245.324219 33.296875 242.800781 C 32.390625 240.273438 31.550781 237.726562 30.773438 235.160156 C 29.992188 232.59375 29.277344 230.011719 28.628906 227.410156 C 27.976562 224.808594 27.386719 222.191406 26.863281 219.5625 C 26.339844 216.929688 25.882812 214.289062 25.488281 211.636719 C 25.097656 208.984375 24.769531 206.324219 24.503906 203.652344 C 24.242188 200.984375 24.046875 198.3125 23.914062 195.632812 C 23.78125 192.953125 23.714844 190.273438 23.714844 187.589844 C 23.714844 184.910156 23.78125 182.230469 23.914062 179.550781 C 24.046875 176.871094 24.242188 174.199219 24.503906 171.527344 C 24.769531 168.859375 25.097656 166.199219 25.488281 163.546875 C 25.882812 160.894531 26.339844 158.25 26.863281 155.621094 C 27.386719 152.992188 27.976562 150.375 28.628906 147.773438 C 29.277344 145.171875 29.992188 142.585938 30.773438 140.019531 C 31.550781 137.453125 32.390625 134.910156 33.296875 132.382812 C 34.199219 129.859375 35.164062 127.355469 36.191406 124.878906 C 37.214844 122.402344 38.304688 119.949219 39.449219 117.527344 C 40.597656 115.101562 41.800781 112.707031 43.066406 110.339844 C 44.332031 107.976562 45.652344 105.644531 47.03125 103.34375 C 48.410156 101.042969 49.84375 98.777344 51.335938 96.546875 C 52.824219 94.316406 54.367188 92.125 55.964844 89.972656 C 57.5625 87.816406 59.210938 85.703125 60.914062 83.628906 C 62.617188 81.558594 64.367188 79.527344 66.167969 77.539062 C 67.96875 75.550781 69.816406 73.609375 71.714844 71.714844 C 73.609375 69.816406 75.550781 67.96875 77.539062 66.167969 C 79.527344 64.367188 81.558594 62.617188 83.628906 60.914062 C 85.703125 59.210938 87.816406 57.5625 89.972656 55.964844 C 92.125 54.367188 94.316406 52.824219 96.546875 51.335938 C 98.777344 49.84375 101.042969 48.410156 103.34375 47.03125 C 105.644531 45.652344 107.976562 44.332031 110.339844 43.066406 C 112.707031 41.800781 115.101562 40.597656 117.527344 39.449219 C 119.949219 38.304688 122.402344 37.214844 124.878906 36.191406 C 127.355469 35.164062 129.859375 34.199219 132.382812 33.296875 C 134.910156 32.390625 137.453125 31.550781 140.019531 30.773438 C 142.585938 29.992188 145.171875 29.277344 147.773438 28.628906 C 150.375 27.976562 152.992188 27.386719 155.621094 26.863281 C 158.25 26.339844 160.894531 25.882812 163.546875 25.488281 C 166.199219 25.097656 168.859375 24.769531 171.527344 24.503906 C 174.199219 24.242188 176.871094 24.046875 179.550781 23.914062 C 182.230469 23.78125 184.910156 23.714844 187.589844 23.714844 C 190.273438 23.714844 192.953125 23.78125 195.632812 23.914062 C 198.3125 24.046875 200.984375 24.242188 203.652344 24.503906 C 206.324219 24.769531 208.984375 25.097656 211.636719 25.488281 C 214.289062 25.882812 216.929688 26.339844 219.5625 26.863281 C 222.191406 27.386719 224.808594 27.976562 227.410156 28.628906 C 230.011719 29.277344 232.59375 29.992188 235.160156 30.773438 C 237.726562 31.550781 240.273438 32.390625 242.800781 33.296875 C 245.324219 34.199219 247.824219 35.164062 250.304688 36.191406 C 252.78125 37.214844 255.230469 38.304688 257.65625 39.449219 C 260.082031 40.597656 262.476562 41.800781 264.839844 43.066406 C 267.207031 44.332031 269.539062 45.652344 271.839844 47.03125 C 274.140625 48.410156 276.40625 49.84375 278.636719 51.335938 C 280.863281 52.824219 283.058594 54.367188 285.210938 55.964844 C 287.367188 57.5625 289.480469 59.210938 291.550781 60.914062 C 293.625 62.617188 295.65625 64.367188 297.644531 66.167969 C 299.628906 67.96875 301.570312 69.816406 303.46875 71.714844 C 305.363281 73.609375 307.214844 75.550781 309.015625 77.539062 C 310.816406 79.527344 312.566406 81.558594 314.269531 83.628906 C 315.96875 85.703125 317.617188 87.816406 319.214844 89.972656 C 320.8125 92.125 322.359375 94.316406 323.847656 96.546875 C 325.339844 98.777344 326.773438 101.042969 328.152344 103.34375 C 329.53125 105.644531 330.851562 107.976562 332.117188 110.339844 C 333.378906 112.707031 334.585938 115.101562 335.730469 117.527344 C 336.878906 119.949219 337.964844 122.402344 338.992188 124.878906 C 340.019531 127.355469 340.984375 129.859375 341.886719 132.382812 C 342.789062 134.910156 343.632812 137.453125 344.410156 140.019531 C 345.1875 142.585938 345.902344 145.171875 346.554688 147.773438 C 347.207031 150.375 347.792969 152.992188 348.316406 155.621094 C 348.839844 158.25 349.300781 160.894531 349.691406 163.546875 C 350.085938 166.199219 350.414062 168.859375 350.675781 171.527344 C 350.941406 174.199219 351.136719 176.871094 351.269531 179.550781 C 351.398438 182.230469 351.464844 184.910156 351.464844 187.589844 Z M 351.464844 187.589844 " fill-opacity="1" fill-rule="nonzero"/></g><g clip-path="url(#cb51b794d8)"><g clip-path="url(#e119c0fc91)"><path fill="#318ce7" d="M 22.335938 22.335938 L 352.664062 22.335938 L 352.664062 352.664062 L 22.335938 352.664062 Z M 22.335938 22.335938 " fill-opacity="1" fill-rule="nonzero"/></g></g><g fill="#0f151c" fill-opacity="1"><g transform="translate(71.525679, 187.069559)"><g><path d="M 0.375 -7.859375 L 0.109375 -2.21875 L -22.078125 -3.28125 L -21.8125 -8.921875 Z M 0.375 -7.859375 "/></g></g></g><g fill="#0f151c" fill-opacity="1"><g transform="translate(71.669825, 176.455669)"><g><path d="M -14.578125 -16.40625 C -14.234375 -18.25 -13.363281 -19.617188 -11.96875 -20.515625 C -10.582031 -21.421875 -8.910156 -21.6875 -6.953125 -21.3125 L 3.65625 -19.3125 L 2.640625 -13.9375 L -6.46875 -15.65625 C -7.445312 -15.84375 -8.269531 -15.726562 -8.9375 -15.3125 C -9.613281 -14.894531 -10.039062 -14.226562 -10.21875 -13.3125 C -10.394531 -12.351562 -10.226562 -11.503906 -9.71875 -10.765625 C -9.21875 -10.035156 -8.46875 -9.523438 -7.46875 -9.234375 L 1.421875 -7.546875 L 0.40625 -2.15625 L -16.40625 -5.34375 L -15.390625 -10.734375 L -12.640625 -10.203125 C -14.367188 -11.765625 -15.015625 -13.832031 -14.578125 -16.40625 Z M -14.578125 -16.40625 "/></g></g></g><g fill="#0f151c" fill-opacity="1"><g transform="translate(75.896784, 155.330569)"><g><path d="M -13.453125 -13.78125 C -12.585938 -16.144531 -11.179688 -18.125 -9.234375 -19.71875 L -6.515625 -16.765625 C -8.316406 -15.160156 -9.472656 -13.664062 -9.984375 -12.28125 C -10.367188 -11.21875 -10.195312 -10.550781 -9.46875 -10.28125 C -9.0625 -10.132812 -8.617188 -10.300781 -8.140625 -10.78125 C -7.671875 -11.257812 -7.171875 -11.875 -6.640625 -12.625 C -6.109375 -13.382812 -5.523438 -14.113281 -4.890625 -14.8125 C -4.265625 -15.519531 -3.488281 -16.03125 -2.5625 -16.34375 C -1.644531 -16.664062 -0.671875 -16.640625 0.359375 -16.265625 C 1.960938 -15.679688 2.988281 -14.59375 3.4375 -13 C 3.882812 -11.414062 3.742188 -9.617188 3.015625 -7.609375 C 1.972656 -4.773438 0.34375 -2.648438 -1.875 -1.234375 L -4.578125 -4.0625 C -2.546875 -5.46875 -1.179688 -7.125 -0.484375 -9.03125 C -0.0546875 -10.195312 -0.210938 -10.914062 -0.953125 -11.1875 C -1.359375 -11.332031 -1.804688 -11.171875 -2.296875 -10.703125 C -2.785156 -10.242188 -3.285156 -9.648438 -3.796875 -8.921875 C -4.316406 -8.191406 -4.890625 -7.476562 -5.515625 -6.78125 C -6.140625 -6.082031 -6.898438 -5.578125 -7.796875 -5.265625 C -8.703125 -4.953125 -9.6875 -4.988281 -10.75 -5.375 C -12.363281 -5.96875 -13.394531 -7.035156 -13.84375 -8.578125 C -14.289062 -10.117188 -14.160156 -11.851562 -13.453125 -13.78125 Z M -13.453125 -13.78125 "/></g></g></g><g fill="#0f151c" fill-opacity="1"><g transform="translate(81.782285, 139.563486)"><g><path d="M 1.46875 -12.96875 L 5.34375 -12.140625 C 5.414062 -10.597656 5.050781 -9.070312 4.25 -7.5625 C 3.457031 -6.0625 2.398438 -5.066406 1.078125 -4.578125 C -0.234375 -4.085938 -1.65625 -4.242188 -3.1875 -5.046875 L -9.875 -8.5625 L -10.984375 -6.46875 L -14.15625 -8.140625 L -13.046875 -10.234375 L -17.265625 -12.453125 L -14.71875 -17.296875 L -10.53125 -15.09375 L -8.453125 -19.046875 L -5.25 -17.359375 L -7.328125 -13.40625 L -1.40625 -10.296875 C -0.820312 -9.984375 -0.335938 -9.867188 0.046875 -9.953125 C 0.441406 -10.046875 0.757812 -10.332031 1 -10.8125 C 1.238281 -11.269531 1.394531 -11.988281 1.46875 -12.96875 Z M 1.46875 -12.96875 "/></g></g></g><g fill="#0f151c" fill-opacity="1"><g transform="translate(88.742378, 126.666561)"><g><path d="M -18.375 -15.859375 C -18.519531 -16.617188 -18.351562 -17.347656 -17.875 -18.046875 C -17.40625 -18.742188 -16.796875 -19.164062 -16.046875 -19.3125 C -15.296875 -19.457031 -14.570312 -19.289062 -13.875 -18.8125 C -13.175781 -18.34375 -12.75 -17.726562 -12.59375 -16.96875 C -12.4375 -16.21875 -12.59375 -15.492188 -13.0625 -14.796875 C -13.539062 -14.097656 -14.160156 -13.675781 -14.921875 -13.53125 C -15.679688 -13.382812 -16.410156 -13.546875 -17.109375 -14.015625 C -17.804688 -14.492188 -18.226562 -15.109375 -18.375 -15.859375 Z M 4.28125 -6.34375 L 1.21875 -1.8125 L -12.96875 -11.375 L -9.90625 -15.90625 Z M 4.28125 -6.34375 "/></g></g></g><g fill="#0f151c" fill-opacity="1"><g transform="translate(94.690044, 117.734628)"><g><path d="M 4.25 -12.34375 L 7.84375 -10.6875 C 7.582031 -9.175781 6.898438 -7.769531 5.796875 -6.46875 C 4.691406 -5.164062 3.441406 -4.421875 2.046875 -4.234375 C 0.648438 -4.046875 -0.707031 -4.507812 -2.03125 -5.625 L -7.796875 -10.515625 L -9.328125 -8.703125 L -12.0625 -11.015625 L -10.53125 -12.828125 L -14.171875 -15.90625 L -10.625 -20.078125 L -7 -17.015625 L -4.125 -20.421875 L -1.375 -18.09375 L -4.25 -14.6875 L 0.859375 -10.34375 C 1.359375 -9.925781 1.8125 -9.71875 2.21875 -9.71875 C 2.625 -9.71875 2.988281 -9.925781 3.3125 -10.34375 C 3.632812 -10.726562 3.945312 -11.394531 4.25 -12.34375 Z M 4.25 -12.34375 "/></g></g></g><g fill="#0f151c" fill-opacity="1"><g transform="translate(103.644376, 106.770438)"><g><path d="M 3 -25.28125 L 14.234375 -12.375 L 10.078125 -8.765625 L 8.21875 -10.90625 C 8.675781 -8.601562 7.945312 -6.617188 6.03125 -4.953125 C 4.625 -3.734375 3.113281 -3.207031 1.5 -3.375 C -0.113281 -3.539062 -1.570312 -4.375 -2.875 -5.875 L -9.96875 -14.015625 L -5.828125 -17.609375 L 0.234375 -10.640625 C 0.910156 -9.867188 1.632812 -9.4375 2.40625 -9.34375 C 3.175781 -9.257812 3.882812 -9.5 4.53125 -10.0625 C 5.3125 -10.757812 5.675781 -11.582031 5.625 -12.53125 C 5.582031 -13.488281 5.171875 -14.414062 4.390625 -15.3125 L -1.15625 -21.671875 Z M 3 -25.28125 "/></g></g></g><g fill="#0f151c" fill-opacity="1"><g transform="translate(119.95123, 92.980799)"><g><path d="M 7.75 -10.5 L 10.6875 -7.84375 C 9.988281 -6.46875 8.914062 -5.320312 7.46875 -4.40625 C 6.03125 -3.5 4.613281 -3.164062 3.21875 -3.40625 C 1.832031 -3.644531 0.675781 -4.5 -0.25 -5.96875 L -4.28125 -12.359375 L -6.28125 -11.09375 L -8.203125 -14.125 L -6.203125 -15.390625 L -8.75 -19.40625 L -4.125 -22.328125 L -1.59375 -18.328125 L 2.1875 -20.71875 L 4.125 -17.671875 L 0.34375 -15.28125 L 3.921875 -9.609375 C 4.265625 -9.054688 4.628906 -8.71875 5.015625 -8.59375 C 5.410156 -8.476562 5.828125 -8.570312 6.265625 -8.875 C 6.691406 -9.144531 7.1875 -9.6875 7.75 -10.5 Z M 7.75 -10.5 "/></g></g></g><g fill="#0f151c" fill-opacity="1"><g transform="translate(131.834178, 85.222342)"><g><path d="M 2.296875 -19.90625 C 4.859375 -21.03125 7.25 -21.207031 9.46875 -20.4375 C 11.6875 -19.664062 13.320312 -18.078125 14.375 -15.671875 C 15.425781 -13.273438 15.488281 -10.992188 14.5625 -8.828125 C 13.644531 -6.671875 11.90625 -5.03125 9.34375 -3.90625 C 6.769531 -2.769531 4.375 -2.59375 2.15625 -3.375 C -0.0625 -4.164062 -1.695312 -5.757812 -2.75 -8.15625 C -3.800781 -10.5625 -3.863281 -12.835938 -2.9375 -14.984375 C -2.019531 -17.128906 -0.273438 -18.769531 2.296875 -19.90625 Z M 4.046875 -15.9375 C 2.992188 -15.476562 2.3125 -14.726562 2 -13.6875 C 1.6875 -12.644531 1.796875 -11.523438 2.328125 -10.328125 C 2.859375 -9.109375 3.609375 -8.265625 4.578125 -7.796875 C 5.554688 -7.335938 6.570312 -7.335938 7.625 -7.796875 C 8.65625 -8.242188 9.332031 -8.984375 9.65625 -10.015625 C 9.976562 -11.054688 9.875 -12.1875 9.34375 -13.40625 C 8.8125 -14.601562 8.050781 -15.4375 7.0625 -15.90625 C 6.082031 -16.375 5.078125 -16.382812 4.046875 -15.9375 Z M 4.046875 -15.9375 "/></g></g></g><g fill="#0f151c" fill-opacity="1"><g transform="translate(151.111797, 77.226442)"><g/></g></g><g fill="#0f151c" fill-opacity="1"><g transform="translate(158.902204, 74.669208)"><g><path d="M 11 -24.578125 L 13.65625 -9.78125 C 14.070312 -7.46875 13.722656 -5.546875 12.609375 -4.015625 C 11.503906 -2.484375 9.773438 -1.503906 7.421875 -1.078125 C 4.441406 -0.535156 1.722656 -1.25 -0.734375 -3.21875 L 1.15625 -7.40625 C 3.007812 -6.0625 4.6875 -5.523438 6.1875 -5.796875 C 7.75 -6.078125 8.367188 -7.113281 8.046875 -8.90625 L 6.203125 -19.09375 L -1.296875 -17.734375 L -2.09375 -22.21875 Z M 11 -24.578125 "/></g></g></g><g fill="#0f151c" fill-opacity="1"><g transform="translate(175.809432, 71.46986)"><g><path d="M 18.625 -17.359375 L 18.859375 -0.25 L 13.359375 -0.171875 L 13.328125 -3 C 12.191406 -0.957031 10.351562 0.078125 7.8125 0.109375 C 5.945312 0.140625 4.453125 -0.425781 3.328125 -1.59375 C 2.203125 -2.757812 1.628906 -4.335938 1.609375 -6.328125 L 1.453125 -17.125 L 6.9375 -17.203125 L 7.0625 -7.96875 C 7.082031 -6.945312 7.351562 -6.148438 7.875 -5.578125 C 8.40625 -5.003906 9.101562 -4.726562 9.96875 -4.75 C 11.007812 -4.78125 11.816406 -5.171875 12.390625 -5.921875 C 12.972656 -6.679688 13.257812 -7.65625 13.25 -8.84375 L 13.125 -17.28125 Z M 18.625 -17.359375 "/></g></g></g><g fill="#0f151c" fill-opacity="1"><g transform="translate(196.934383, 71.281599)"><g><path d="M 12.515625 -15.59375 C 14.835938 -15.21875 16.550781 -14.382812 17.65625 -13.09375 C 18.757812 -11.8125 19.171875 -10.207031 18.890625 -8.28125 L 17.109375 2.75 L 11.8125 1.90625 L 12.125 -0.03125 C 10.78125 1.238281 8.941406 1.6875 6.609375 1.3125 C 4.828125 1.03125 3.492188 0.316406 2.609375 -0.828125 C 1.722656 -1.984375 1.40625 -3.34375 1.65625 -4.90625 C 1.914062 -6.519531 2.675781 -7.679688 3.9375 -8.390625 C 5.195312 -9.097656 6.867188 -9.296875 8.953125 -8.984375 L 13.40625 -8.265625 L 13.453125 -8.515625 C 13.585938 -9.347656 13.414062 -10.039062 12.9375 -10.59375 C 12.457031 -11.15625 11.675781 -11.523438 10.59375 -11.703125 C 9.0625 -11.941406 7.304688 -11.738281 5.328125 -11.09375 L 4.359375 -14.921875 C 7.304688 -15.765625 10.023438 -15.988281 12.515625 -15.59375 Z M 8.84375 -2.078125 C 9.707031 -1.929688 10.5 -2.019531 11.21875 -2.34375 C 11.9375 -2.675781 12.429688 -3.175781 12.703125 -3.84375 L 12.9375 -5.34375 L 9.53125 -5.890625 C 7.894531 -6.148438 6.984375 -5.679688 6.796875 -4.484375 C 6.691406 -3.847656 6.816406 -3.316406 7.171875 -2.890625 C 7.535156 -2.460938 8.09375 -2.191406 8.84375 -2.078125 Z M 8.84375 -2.078125 "/></g></g></g><g fill="#0f151c" fill-opacity="1"><g transform="translate(215.833483, 74.22471)"><g><path d="M 18.359375 -12.03125 C 20.128906 -11.414062 21.359375 -10.351562 22.046875 -8.84375 C 22.742188 -7.332031 22.765625 -5.640625 22.109375 -3.765625 L 18.578125 6.4375 L 13.40625 4.640625 L 16.4375 -4.109375 C 16.757812 -5.054688 16.765625 -5.894531 16.453125 -6.625 C 16.140625 -7.351562 15.539062 -7.867188 14.65625 -8.171875 C 13.738281 -8.484375 12.878906 -8.441406 12.078125 -8.046875 C 11.273438 -7.660156 10.65625 -6.988281 10.21875 -6.03125 L 7.265625 2.515625 L 2.0625 0.71875 L 7.65625 -15.453125 L 12.859375 -13.65625 L 11.953125 -11.015625 C 13.742188 -12.492188 15.878906 -12.832031 18.359375 -12.03125 Z M 18.359375 -12.03125 "/></g></g></g><g fill="#0f151c" fill-opacity="1"><g transform="translate(236.414937, 81.870426)"><g/></g></g><g fill="#0f151c" fill-opacity="1"><g transform="translate(243.757844, 85.057173)"><g><path d="M 14.234375 -17.203125 L 22.265625 -11.796875 C 24.617188 -10.210938 26.070312 -8.425781 26.625 -6.4375 C 27.175781 -4.445312 26.765625 -2.425781 25.390625 -0.375 C 23.941406 1.78125 22.160156 3.019531 20.046875 3.34375 C 17.941406 3.664062 15.710938 3.035156 13.359375 1.453125 L 10.015625 -0.796875 L 6.53125 4.390625 L 1.84375 1.234375 Z M 16.453125 -10.375 L 12.5 -4.5 L 15.625 -2.40625 C 16.65625 -1.707031 17.625 -1.425781 18.53125 -1.5625 C 19.4375 -1.695312 20.210938 -2.242188 20.859375 -3.203125 C 21.492188 -4.148438 21.695312 -5.054688 21.46875 -5.921875 C 21.238281 -6.796875 20.609375 -7.582031 19.578125 -8.28125 Z M 16.453125 -10.375 "/></g></g></g><g fill="#0f151c" fill-opacity="1"><g transform="translate(261.653998, 97.221983)"><g><path d="M 19.15625 -5.671875 C 20.851562 -4.035156 21.789062 -2.375 21.96875 -0.6875 C 22.144531 1 21.566406 2.550781 20.234375 3.96875 L 12.484375 12.015625 L 8.625 8.296875 L 9.984375 6.875 C 8.148438 7.164062 6.378906 6.492188 4.671875 4.859375 C 3.378906 3.609375 2.695312 2.253906 2.625 0.796875 C 2.550781 -0.648438 3.066406 -1.945312 4.171875 -3.09375 C 5.304688 -4.269531 6.585938 -4.785156 8.015625 -4.640625 C 9.453125 -4.503906 10.9375 -3.710938 12.46875 -2.265625 L 15.71875 0.875 L 15.90625 0.6875 C 16.488281 0.0703125 16.742188 -0.597656 16.671875 -1.328125 C 16.597656 -2.054688 16.164062 -2.800781 15.375 -3.5625 C 14.257812 -4.632812 12.703125 -5.476562 10.703125 -6.09375 L 12.09375 -9.78125 C 14.988281 -8.78125 17.34375 -7.410156 19.15625 -5.671875 Z M 8.453125 3.34375 C 9.078125 3.945312 9.78125 4.316406 10.5625 4.453125 C 11.34375 4.597656 12.03125 4.476562 12.625 4.09375 L 13.671875 3 L 11.1875 0.609375 C 10 -0.546875 8.984375 -0.6875 8.140625 0.1875 C 7.703125 0.644531 7.503906 1.15625 7.546875 1.71875 C 7.597656 2.28125 7.898438 2.820312 8.453125 3.34375 Z M 8.453125 3.34375 "/></g></g></g><g fill="#0f151c" fill-opacity="1"><g transform="translate(275.500395, 110.393662)"><g><path d="M 21.609375 0.296875 C 23.023438 2.253906 23.515625 4.300781 23.078125 6.4375 C 22.640625 8.570312 21.347656 10.421875 19.203125 11.984375 C 17.097656 13.515625 14.976562 14.164062 12.84375 13.9375 C 10.71875 13.707031 8.945312 12.625 7.53125 10.6875 C 6.21875 8.875 5.859375 6.976562 6.453125 5 L 4.609375 6.34375 L 1.375 1.890625 L 20.4375 -11.96875 L 23.671875 -7.515625 L 16.625 -2.390625 C 18.6875 -2.316406 20.347656 -1.421875 21.609375 0.296875 Z M 10.203125 6.96875 C 10.867188 7.882812 11.75 8.382812 12.84375 8.46875 C 13.9375 8.550781 15.015625 8.207031 16.078125 7.4375 C 17.140625 6.664062 17.796875 5.75 18.046875 4.6875 C 18.296875 3.625 18.085938 2.632812 17.421875 1.71875 C 16.765625 0.820312 15.894531 0.328125 14.8125 0.234375 C 13.726562 0.148438 12.65625 0.492188 11.59375 1.265625 C 10.519531 2.046875 9.851562 2.960938 9.59375 4.015625 C 9.332031 5.066406 9.535156 6.050781 10.203125 6.96875 Z M 10.203125 6.96875 "/></g></g></g><g fill="#0f151c" fill-opacity="1"><g transform="translate(288.192121, 128.589927)"><g><path d="M 3.671875 6.921875 L 1.09375 2.078125 L 21.90625 -8.96875 L 24.484375 -4.125 Z M 3.671875 6.921875 "/></g></g></g><g fill="#0f151c" fill-opacity="1"><g transform="translate(293.494556, 137.939192)"><g><path d="M 19.734375 3.53125 C 20.691406 6.15625 20.71875 8.546875 19.8125 10.703125 C 18.914062 12.859375 17.234375 14.390625 14.765625 15.296875 C 12.304688 16.203125 10.023438 16.128906 7.921875 15.078125 C 5.816406 14.023438 4.285156 12.1875 3.328125 9.5625 C 2.359375 6.925781 2.332031 4.523438 3.25 2.359375 C 4.164062 0.191406 5.851562 -1.34375 8.3125 -2.25 C 10.78125 -3.15625 13.054688 -3.078125 15.140625 -2.015625 C 17.234375 -0.953125 18.765625 0.894531 19.734375 3.53125 Z M 15.65625 5.03125 C 15.257812 3.957031 14.550781 3.226562 13.53125 2.84375 C 12.519531 2.457031 11.394531 2.492188 10.15625 2.953125 C 8.90625 3.410156 8.019531 4.113281 7.5 5.0625 C 6.976562 6.007812 6.914062 7.019531 7.3125 8.09375 C 7.695312 9.144531 8.394531 9.863281 9.40625 10.25 C 10.414062 10.632812 11.546875 10.597656 12.796875 10.140625 C 14.035156 9.679688 14.914062 8.976562 15.4375 8.03125 C 15.96875 7.082031 16.039062 6.082031 15.65625 5.03125 Z M 15.65625 5.03125 "/></g></g></g><g fill="#0f151c" fill-opacity="1"><g transform="translate(300.28556, 157.674306)"><g/></g></g><g fill="#0f151c" fill-opacity="1"><g transform="translate(302.226682, 165.963831)"><g><path d="M 1.125 7.796875 L 0.3125 2.203125 L 22.296875 -0.96875 L 23.109375 4.625 Z M 1.125 7.796875 "/></g></g></g><g fill="#0f151c" fill-opacity="1"><g transform="translate(303.766691, 176.970898)"><g><path d="M 0.375 7.859375 L 0.109375 2.21875 L 22.296875 1.15625 L 22.5625 6.796875 Z M 0.375 7.859375 "/></g></g></g><g clip-path="url(#00f8f8a61b)"><path fill="#318ce7" d="M 216.882812 264.316406 L 164.507812 264.316406 C 164.125 264.316406 163.757812 264.242188 163.40625 264.09375 C 163.054688 263.949219 162.746094 263.742188 162.476562 263.472656 C 162.207031 263.203125 162 262.894531 161.855469 262.542969 C 161.707031 262.191406 161.632812 261.824219 161.632812 261.441406 L 161.632812 249.578125 C 161.632812 249.195312 161.707031 248.828125 161.851562 248.476562 C 161.996094 248.125 162.203125 247.8125 162.472656 247.542969 C 162.742188 247.273438 163.054688 247.066406 163.40625 246.917969 C 163.757812 246.773438 164.125 246.699219 164.507812 246.699219 L 172.519531 246.699219 L 172.519531 147.097656 L 164.507812 147.097656 C 164.125 147.097656 163.757812 147.023438 163.40625 146.878906 C 163.054688 146.730469 162.742188 146.523438 162.472656 146.253906 C 162.203125 145.984375 161.996094 145.671875 161.851562 145.320312 C 161.707031 144.964844 161.632812 144.597656 161.632812 144.21875 L 161.632812 132.351562 C 161.632812 131.972656 161.707031 131.605469 161.851562 131.253906 C 162 130.902344 162.207031 130.589844 162.476562 130.320312 C 162.746094 130.050781 163.054688 129.84375 163.40625 129.699219 C 163.757812 129.554688 164.125 129.480469 164.507812 129.480469 L 216.882812 129.480469 C 217.261719 129.480469 217.628906 129.554688 217.980469 129.699219 C 218.332031 129.84375 218.644531 130.050781 218.914062 130.320312 C 219.183594 130.589844 219.390625 130.902344 219.535156 131.253906 C 219.679688 131.605469 219.753906 131.972656 219.753906 132.351562 L 219.753906 144.21875 C 219.753906 144.597656 219.683594 144.964844 219.539062 145.320312 C 219.390625 145.671875 219.183594 145.984375 218.914062 146.253906 C 218.644531 146.523438 218.335938 146.730469 217.980469 146.878906 C 217.628906 147.023438 217.261719 147.097656 216.882812 147.097656 L 208.867188 147.097656 L 208.867188 246.726562 L 216.871094 246.726562 C 217.25 246.726562 217.617188 246.800781 217.96875 246.949219 C 218.324219 247.09375 218.632812 247.300781 218.902344 247.570312 C 219.171875 247.84375 219.378906 248.152344 219.523438 248.507812 C 219.671875 248.859375 219.742188 249.226562 219.742188 249.605469 L 219.742188 261.441406 C 219.742188 261.824219 219.667969 262.1875 219.523438 262.539062 C 219.378906 262.890625 219.171875 263.199219 218.902344 263.46875 C 218.636719 263.738281 218.328125 263.945312 217.976562 264.09375 C 217.625 264.238281 217.261719 264.3125 216.882812 264.316406 Z M 216.882812 264.316406 " fill-opacity="1" fill-rule="nonzero"/></g><g clip-path="url(#e38ceb052a)"><path fill="#318ce7" d="M 158.113281 264.804688 L 210.488281 264.804688 C 210.871094 264.804688 211.238281 264.730469 211.589844 264.585938 C 211.941406 264.4375 212.25 264.230469 212.519531 263.960938 C 212.789062 263.691406 212.996094 263.382812 213.140625 263.03125 C 213.289062 262.679688 213.363281 262.3125 213.363281 261.933594 L 213.363281 250.066406 C 213.363281 249.6875 213.289062 249.320312 213.144531 248.964844 C 213 248.613281 212.792969 248.300781 212.523438 248.03125 C 212.253906 247.761719 211.941406 247.554688 211.589844 247.40625 C 211.238281 247.261719 210.871094 247.1875 210.488281 247.1875 L 202.476562 247.1875 L 202.476562 147.585938 L 210.488281 147.585938 C 210.871094 147.585938 211.238281 147.511719 211.589844 147.367188 C 211.941406 147.222656 212.253906 147.011719 212.523438 146.742188 C 212.792969 146.472656 213 146.160156 213.144531 145.808594 C 213.289062 145.457031 213.363281 145.089844 213.363281 144.707031 L 213.363281 132.84375 C 213.363281 132.460938 213.289062 132.09375 213.144531 131.742188 C 213 131.390625 212.789062 131.082031 212.519531 130.8125 C 212.25 130.542969 211.941406 130.335938 211.589844 130.1875 C 211.238281 130.042969 210.871094 129.96875 210.488281 129.96875 L 158.113281 129.96875 C 157.734375 129.96875 157.367188 130.042969 157.015625 130.1875 C 156.664062 130.335938 156.351562 130.542969 156.082031 130.8125 C 155.8125 131.082031 155.605469 131.390625 155.460938 131.742188 C 155.316406 132.09375 155.242188 132.460938 155.242188 132.84375 L 155.242188 144.707031 C 155.242188 145.089844 155.3125 145.457031 155.460938 145.808594 C 155.605469 146.160156 155.8125 146.472656 156.082031 146.742188 C 156.351562 147.011719 156.660156 147.222656 157.015625 147.367188 C 157.367188 147.511719 157.734375 147.585938 158.113281 147.585938 L 166.128906 147.585938 L 166.128906 247.21875 L 158.125 247.21875 C 157.746094 247.21875 157.378906 247.292969 157.027344 247.4375 C 156.671875 247.582031 156.363281 247.792969 156.09375 248.0625 C 155.824219 248.332031 155.617188 248.644531 155.472656 248.996094 C 155.324219 249.347656 155.253906 249.714844 155.253906 250.097656 L 155.253906 261.933594 C 155.253906 262.3125 155.328125 262.679688 155.472656 263.027344 C 155.617188 263.378906 155.824219 263.6875 156.09375 263.957031 C 156.359375 264.226562 156.671875 264.433594 157.019531 264.582031 C 157.371094 264.730469 157.734375 264.804688 158.113281 264.804688 Z M 158.113281 264.804688 " fill-opacity="1" fill-rule="nonzero"/></g><g clip-path="url(#612e3bd6de)"><path fill="#318ce7" d="M 205.589844 115.421875 C 205.589844 116.015625 205.558594 116.605469 205.5 117.195312 C 205.441406 117.785156 205.355469 118.371094 205.242188 118.953125 C 205.125 119.535156 204.980469 120.109375 204.808594 120.675781 C 204.636719 121.242188 204.4375 121.800781 204.210938 122.347656 C 203.984375 122.894531 203.730469 123.429688 203.453125 123.953125 C 203.171875 124.476562 202.867188 124.980469 202.539062 125.476562 C 202.210938 125.96875 201.855469 126.441406 201.480469 126.902344 C 201.105469 127.359375 200.707031 127.796875 200.289062 128.21875 C 199.871094 128.636719 199.429688 129.035156 198.972656 129.410156 C 198.515625 129.785156 198.039062 130.136719 197.546875 130.46875 C 197.054688 130.796875 196.546875 131.101562 196.023438 131.378906 C 195.5 131.660156 194.964844 131.914062 194.417969 132.140625 C 193.871094 132.367188 193.3125 132.566406 192.746094 132.738281 C 192.179688 132.910156 191.605469 133.054688 191.023438 133.167969 C 190.441406 133.285156 189.859375 133.371094 189.269531 133.429688 C 188.679688 133.488281 188.085938 133.515625 187.496094 133.515625 C 186.902344 133.515625 186.3125 133.488281 185.722656 133.429688 C 185.132812 133.371094 184.546875 133.285156 183.964844 133.167969 C 183.382812 133.054688 182.808594 132.910156 182.242188 132.738281 C 181.675781 132.566406 181.117188 132.367188 180.570312 132.140625 C 180.023438 131.914062 179.488281 131.660156 178.964844 131.378906 C 178.441406 131.101562 177.933594 130.796875 177.441406 130.46875 C 176.949219 130.136719 176.472656 129.785156 176.015625 129.410156 C 175.558594 129.035156 175.121094 128.636719 174.699219 128.21875 C 174.28125 127.796875 173.882812 127.359375 173.507812 126.902344 C 173.132812 126.441406 172.78125 125.96875 172.449219 125.476562 C 172.121094 124.980469 171.816406 124.476562 171.539062 123.953125 C 171.257812 123.429688 171.003906 122.894531 170.777344 122.347656 C 170.550781 121.800781 170.351562 121.242188 170.179688 120.675781 C 170.007812 120.109375 169.863281 119.535156 169.75 118.953125 C 169.632812 118.371094 169.546875 117.785156 169.488281 117.195312 C 169.429688 116.605469 169.402344 116.015625 169.402344 115.421875 C 169.402344 114.828125 169.429688 114.238281 169.488281 113.648438 C 169.546875 113.058594 169.632812 112.472656 169.75 111.894531 C 169.863281 111.3125 170.007812 110.738281 170.179688 110.171875 C 170.351562 109.601562 170.550781 109.046875 170.777344 108.5 C 171.003906 107.949219 171.257812 107.414062 171.539062 106.894531 C 171.816406 106.371094 172.121094 105.863281 172.449219 105.371094 C 172.78125 104.878906 173.132812 104.402344 173.507812 103.945312 C 173.882812 103.484375 174.28125 103.046875 174.699219 102.628906 C 175.121094 102.210938 175.558594 101.8125 176.015625 101.4375 C 176.472656 101.058594 176.949219 100.707031 177.441406 100.378906 C 177.933594 100.050781 178.441406 99.746094 178.964844 99.464844 C 179.488281 99.1875 180.023438 98.933594 180.570312 98.707031 C 181.117188 98.480469 181.675781 98.28125 182.242188 98.109375 C 182.808594 97.9375 183.382812 97.792969 183.964844 97.675781 C 184.546875 97.5625 185.132812 97.472656 185.722656 97.417969 C 186.3125 97.359375 186.902344 97.328125 187.496094 97.328125 C 188.085938 97.328125 188.679688 97.359375 189.269531 97.417969 C 189.859375 97.472656 190.441406 97.5625 191.023438 97.675781 C 191.605469 97.792969 192.179688 97.9375 192.746094 98.109375 C 193.3125 98.28125 193.871094 98.480469 194.417969 98.707031 C 194.964844 98.933594 195.5 99.1875 196.023438 99.464844 C 196.546875 99.746094 197.054688 100.050781 197.546875 100.378906 C 198.039062 100.707031 198.515625 101.058594 198.972656 101.4375 C 199.429688 101.8125 199.871094 102.210938 200.289062 102.628906 C 200.707031 103.046875 201.105469 103.484375 201.480469 103.945312 C 201.855469 104.402344 202.210938 104.878906 202.539062 105.371094 C 202.867188 105.863281 203.171875 106.371094 203.453125 106.894531 C 203.730469 107.414062 203.984375 107.949219 204.210938 108.5 C 204.4375 109.046875 204.636719 109.601562 204.808594 110.171875 C 204.980469 110.738281 205.125 111.3125 205.242188 111.894531 C 205.355469 112.472656 205.441406 113.058594 205.5 113.648438 C 205.558594 114.238281 205.589844 114.828125 205.589844 115.421875 Z M 205.589844 115.421875 " fill-opacity="1" fill-rule="nonzero"/></g><g fill="#ff3131" fill-opacity="1"><g transform="translate(99.379258, 279.752858)"><g><path d="M 1.25 -12.421875 L 6.65625 -12.421875 C 8.238281 -12.421875 9.46875 -12.046875 10.34375 -11.296875 C 11.21875 -10.546875 11.65625 -9.476562 11.65625 -8.09375 C 11.65625 -6.632812 11.21875 -5.503906 10.34375 -4.703125 C 9.46875 -3.898438 8.238281 -3.5 6.65625 -3.5 L 4.40625 -3.5 L 4.40625 0 L 1.25 0 Z M 4.40625 -9.9375 L 4.40625 -5.984375 L 6.5 -5.984375 C 7.195312 -5.984375 7.734375 -6.15625 8.109375 -6.5 C 8.492188 -6.84375 8.6875 -7.335938 8.6875 -7.984375 C 8.6875 -8.628906 8.492188 -9.113281 8.109375 -9.4375 C 7.734375 -9.769531 7.195312 -9.9375 6.5 -9.9375 Z M 4.40625 -9.9375 "/></g></g></g><g fill="#ff3131" fill-opacity="1"><g transform="translate(111.79564, 279.752858)"><g><path d="M 8.734375 0 L 6.890625 -3.5 L 4.40625 -3.5 L 4.40625 0 L 1.25 0 L 1.25 -12.421875 L 6.796875 -12.421875 C 8.441406 -12.421875 9.710938 -12.046875 10.609375 -11.296875 C 11.515625 -10.546875 11.96875 -9.476562 11.96875 -8.09375 C 11.96875 -6.175781 11.210938 -4.84375 9.703125 -4.09375 L 12.3125 0 Z M 4.40625 -5.984375 L 6.796875 -5.984375 C 7.484375 -5.984375 8.015625 -6.15625 8.390625 -6.5 C 8.773438 -6.84375 8.96875 -7.335938 8.96875 -7.984375 C 8.96875 -8.628906 8.773438 -9.113281 8.390625 -9.4375 C 8.015625 -9.769531 7.484375 -9.9375 6.796875 -9.9375 L 4.40625 -9.9375 Z M 4.40625 -5.984375 "/></g></g></g><g fill="#ff3131" fill-opacity="1"><g transform="translate(124.992466, 279.752858)"><g><path d="M 7.140625 -12.53125 C 9.066406 -12.53125 10.664062 -11.925781 11.9375 -10.71875 C 13.21875 -9.519531 13.859375 -8.023438 13.859375 -6.234375 C 13.859375 -4.421875 13.21875 -2.90625 11.9375 -1.6875 C 10.65625 -0.46875 9.054688 0.140625 7.140625 0.140625 C 5.222656 0.140625 3.625 -0.460938 2.34375 -1.671875 C 1.0625 -2.890625 0.421875 -4.410156 0.421875 -6.234375 C 0.421875 -8.046875 1.0625 -9.546875 2.34375 -10.734375 C 3.625 -11.929688 5.222656 -12.53125 7.140625 -12.53125 Z M 7.171875 -9.890625 C 6.203125 -9.890625 5.375 -9.535156 4.6875 -8.828125 C 4 -8.128906 3.65625 -7.257812 3.65625 -6.21875 C 3.65625 -5.175781 4 -4.296875 4.6875 -3.578125 C 5.382812 -2.859375 6.210938 -2.5 7.171875 -2.5 C 8.128906 -2.5 8.941406 -2.859375 9.609375 -3.578125 C 10.273438 -4.296875 10.609375 -5.175781 10.609375 -6.21875 C 10.609375 -7.257812 10.273438 -8.128906 9.609375 -8.828125 C 8.941406 -9.535156 8.128906 -9.890625 7.171875 -9.890625 Z M 7.171875 -9.890625 "/></g></g></g><g fill="#ff3131" fill-opacity="1"><g transform="translate(139.626023, 279.752858)"><g><path d="M 10.453125 -9.9375 L 4.40625 -9.9375 L 4.40625 -7.0625 L 9.96875 -7.0625 L 9.96875 -4.578125 L 4.40625 -4.578125 L 4.40625 0 L 1.25 0 L 1.25 -12.421875 L 10.453125 -12.421875 Z M 10.453125 -9.9375 "/></g></g></g><g fill="#ff3131" fill-opacity="1"><g transform="translate(150.694368, 279.752858)"><g><path d="M 10.96875 -9.9375 L 4.40625 -9.9375 L 4.40625 -7.46875 L 10.328125 -7.46875 L 10.328125 -4.984375 L 4.40625 -4.984375 L 4.40625 -2.484375 L 11.171875 -2.484375 L 11.171875 0 L 1.25 0 L 1.25 -12.421875 L 10.96875 -12.421875 Z M 10.96875 -9.9375 "/></g></g></g><g fill="#ff3131" fill-opacity="1"><g transform="translate(163.004325, 279.752858)"><g><path d="M 6.015625 -12.5625 C 7.867188 -12.5625 9.503906 -12.101562 10.921875 -11.1875 L 9.734375 -8.71875 C 9.078125 -9.09375 8.375 -9.398438 7.625 -9.640625 C 6.882812 -9.890625 6.257812 -10.015625 5.75 -10.015625 C 4.84375 -10.015625 4.390625 -9.710938 4.390625 -9.109375 C 4.390625 -8.710938 4.613281 -8.394531 5.0625 -8.15625 C 5.507812 -7.925781 6.054688 -7.722656 6.703125 -7.546875 C 7.347656 -7.378906 7.992188 -7.171875 8.640625 -6.921875 C 9.285156 -6.679688 9.832031 -6.289062 10.28125 -5.75 C 10.726562 -5.207031 10.953125 -4.519531 10.953125 -3.6875 C 10.953125 -2.5 10.484375 -1.566406 9.546875 -0.890625 C 8.609375 -0.222656 7.421875 0.109375 5.984375 0.109375 C 4.953125 0.109375 3.929688 -0.0664062 2.921875 -0.421875 C 1.921875 -0.773438 1.046875 -1.257812 0.296875 -1.875 L 1.53125 -4.3125 C 2.15625 -3.769531 2.890625 -3.320312 3.734375 -2.96875 C 4.585938 -2.625 5.347656 -2.453125 6.015625 -2.453125 C 6.523438 -2.453125 6.921875 -2.539062 7.203125 -2.71875 C 7.484375 -2.90625 7.625 -3.175781 7.625 -3.53125 C 7.625 -3.875 7.460938 -4.160156 7.140625 -4.390625 C 6.816406 -4.617188 6.410156 -4.789062 5.921875 -4.90625 C 5.441406 -5.019531 4.914062 -5.171875 4.34375 -5.359375 C 3.78125 -5.546875 3.253906 -5.75 2.765625 -5.96875 C 2.285156 -6.195312 1.878906 -6.554688 1.546875 -7.046875 C 1.222656 -7.546875 1.0625 -8.140625 1.0625 -8.828125 C 1.0625 -9.960938 1.515625 -10.867188 2.421875 -11.546875 C 3.328125 -12.222656 4.523438 -12.5625 6.015625 -12.5625 Z M 6.015625 -12.5625 "/></g></g></g><g fill="#ff3131" fill-opacity="1"><g transform="translate(174.782167, 279.752858)"><g><path d="M 7.140625 -12.53125 C 9.066406 -12.53125 10.664062 -11.925781 11.9375 -10.71875 C 13.21875 -9.519531 13.859375 -8.023438 13.859375 -6.234375 C 13.859375 -4.421875 13.21875 -2.90625 11.9375 -1.6875 C 10.65625 -0.46875 9.054688 0.140625 7.140625 0.140625 C 5.222656 0.140625 3.625 -0.460938 2.34375 -1.671875 C 1.0625 -2.890625 0.421875 -4.410156 0.421875 -6.234375 C 0.421875 -8.046875 1.0625 -9.546875 2.34375 -10.734375 C 3.625 -11.929688 5.222656 -12.53125 7.140625 -12.53125 Z M 7.171875 -9.890625 C 6.203125 -9.890625 5.375 -9.535156 4.6875 -8.828125 C 4 -8.128906 3.65625 -7.257812 3.65625 -6.21875 C 3.65625 -5.175781 4 -4.296875 4.6875 -3.578125 C 5.382812 -2.859375 6.210938 -2.5 7.171875 -2.5 C 8.128906 -2.5 8.941406 -2.859375 9.609375 -3.578125 C 10.273438 -4.296875 10.609375 -5.175781 10.609375 -6.21875 C 10.609375 -7.257812 10.273438 -8.128906 9.609375 -8.828125 C 8.941406 -9.535156 8.128906 -9.890625 7.171875 -9.890625 Z M 7.171875 -9.890625 "/></g></g></g><g fill="#ff3131" fill-opacity="1"><g transform="translate(189.415723, 279.752858)"><g><path d="M 8.734375 0 L 6.890625 -3.5 L 4.40625 -3.5 L 4.40625 0 L 1.25 0 L 1.25 -12.421875 L 6.796875 -12.421875 C 8.441406 -12.421875 9.710938 -12.046875 10.609375 -11.296875 C 11.515625 -10.546875 11.96875 -9.476562 11.96875 -8.09375 C 11.96875 -6.175781 11.210938 -4.84375 9.703125 -4.09375 L 12.3125 0 Z M 4.40625 -5.984375 L 6.796875 -5.984375 C 7.484375 -5.984375 8.015625 -6.15625 8.390625 -6.5 C 8.773438 -6.84375 8.96875 -7.335938 8.96875 -7.984375 C 8.96875 -8.628906 8.773438 -9.113281 8.390625 -9.4375 C 8.015625 -9.769531 7.484375 -9.9375 6.796875 -9.9375 L 4.40625 -9.9375 Z M 4.40625 -5.984375 "/></g></g></g><g fill="#ff3131" fill-opacity="1"><g transform="translate(202.612547, 279.752858)"><g><path d="M 9.5 -2.296875 L 4.0625 -2.296875 L 3.15625 0 L -0.09375 0 L 5.265625 -12.421875 L 8.515625 -12.421875 L 13.75 0 L 10.390625 0 Z M 8.578125 -4.6875 L 6.796875 -9.28125 L 4.984375 -4.6875 Z M 8.578125 -4.6875 "/></g></g></g><g fill="#ff3131" fill-opacity="1"><g transform="translate(216.625288, 279.752858)"><g><path d="M 1.25 -12.421875 L 6.578125 -12.421875 C 8.535156 -12.421875 10.125 -11.847656 11.34375 -10.703125 C 12.570312 -9.554688 13.1875 -8.0625 13.1875 -6.21875 C 13.1875 -4.382812 12.5625 -2.890625 11.3125 -1.734375 C 10.070312 -0.578125 8.457031 0 6.46875 0 L 1.25 0 Z M 4.40625 -9.90625 L 4.40625 -2.515625 L 6.65625 -2.515625 C 7.625 -2.515625 8.414062 -2.851562 9.03125 -3.53125 C 9.65625 -4.21875 9.96875 -5.101562 9.96875 -6.1875 C 9.96875 -7.28125 9.640625 -8.171875 8.984375 -8.859375 C 8.335938 -9.554688 7.515625 -9.90625 6.515625 -9.90625 Z M 4.40625 -9.90625 "/></g></g></g><g fill="#ff3131" fill-opacity="1"><g transform="translate(230.584825, 279.752858)"><g><path d="M 7.140625 -12.53125 C 9.066406 -12.53125 10.664062 -11.925781 11.9375 -10.71875 C 13.21875 -9.519531 13.859375 -8.023438 13.859375 -6.234375 C 13.859375 -4.421875 13.21875 -2.90625 11.9375 -1.6875 C 10.65625 -0.46875 9.054688 0.140625 7.140625 0.140625 C 5.222656 0.140625 3.625 -0.460938 2.34375 -1.671875 C 1.0625 -2.890625 0.421875 -4.410156 0.421875 -6.234375 C 0.421875 -8.046875 1.0625 -9.546875 2.34375 -10.734375 C 3.625 -11.929688 5.222656 -12.53125 7.140625 -12.53125 Z M 7.171875 -9.890625 C 6.203125 -9.890625 5.375 -9.535156 4.6875 -8.828125 C 4 -8.128906 3.65625 -7.257812 3.65625 -6.21875 C 3.65625 -5.175781 4 -4.296875 4.6875 -3.578125 C 5.382812 -2.859375 6.210938 -2.5 7.171875 -2.5 C 8.128906 -2.5 8.941406 -2.859375 9.609375 -3.578125 C 10.273438 -4.296875 10.609375 -5.175781 10.609375 -6.21875 C 10.609375 -7.257812 10.273438 -8.128906 9.609375 -8.828125 C 8.941406 -9.535156 8.128906 -9.890625 7.171875 -9.890625 Z M 7.171875 -9.890625 "/></g></g></g><g fill="#ff3131" fill-opacity="1"><g transform="translate(245.218389, 279.752858)"><g/></g></g><g fill="#ff3131" fill-opacity="1"><g transform="translate(249.688447, 279.752858)"><g><path d="M 1.25 -12.421875 L 6.578125 -12.421875 C 8.535156 -12.421875 10.125 -11.847656 11.34375 -10.703125 C 12.570312 -9.554688 13.1875 -8.0625 13.1875 -6.21875 C 13.1875 -4.382812 12.5625 -2.890625 11.3125 -1.734375 C 10.070312 -0.578125 8.457031 0 6.46875 0 L 1.25 0 Z M 4.40625 -9.90625 L 4.40625 -2.515625 L 6.65625 -2.515625 C 7.625 -2.515625 8.414062 -2.851562 9.03125 -3.53125 C 9.65625 -4.21875 9.96875 -5.101562 9.96875 -6.1875 C 9.96875 -7.28125 9.640625 -8.171875 8.984375 -8.859375 C 8.335938 -9.554688 7.515625 -9.90625 6.515625 -9.90625 Z M 4.40625 -9.90625 "/></g></g></g><g fill="#ff3131" fill-opacity="1"><g transform="translate(263.647984, 279.752858)"><g><path d="M 10.96875 -9.9375 L 4.40625 -9.9375 L 4.40625 -7.46875 L 10.328125 -7.46875 L 10.328125 -4.984375 L 4.40625 -4.984375 L 4.40625 -2.484375 L 11.171875 -2.484375 L 11.171875 0 L 1.25 0 L 1.25 -12.421875 L 10.96875 -12.421875 Z M 10.96875 -9.9375 "/></g></g></g><g fill="#ff3131" fill-opacity="1"><g transform="translate(97.563759, 304.430794)"><g><path d="M 10.96875 -9.9375 L 4.40625 -9.9375 L 4.40625 -7.46875 L 10.328125 -7.46875 L 10.328125 -4.984375 L 4.40625 -4.984375 L 4.40625 -2.484375 L 11.171875 -2.484375 L 11.171875 0 L 1.25 0 L 1.25 -12.421875 L 10.96875 -12.421875 Z M 10.96875 -9.9375 "/></g></g></g><g fill="#ff3131" fill-opacity="1"><g transform="translate(109.873717, 304.430794)"><g><path d="M 1.25 -12.421875 L 6.578125 -12.421875 C 8.535156 -12.421875 10.125 -11.847656 11.34375 -10.703125 C 12.570312 -9.554688 13.1875 -8.0625 13.1875 -6.21875 C 13.1875 -4.382812 12.5625 -2.890625 11.3125 -1.734375 C 10.070312 -0.578125 8.457031 0 6.46875 0 L 1.25 0 Z M 4.40625 -9.90625 L 4.40625 -2.515625 L 6.65625 -2.515625 C 7.625 -2.515625 8.414062 -2.851562 9.03125 -3.53125 C 9.65625 -4.21875 9.96875 -5.101562 9.96875 -6.1875 C 9.96875 -7.28125 9.640625 -8.171875 8.984375 -8.859375 C 8.335938 -9.554688 7.515625 -9.90625 6.515625 -9.90625 Z M 4.40625 -9.90625 "/></g></g></g><g fill="#ff3131" fill-opacity="1"><g transform="translate(123.833256, 304.430794)"><g><path d="M 12.421875 -12.421875 L 12.421875 -5.21875 C 12.421875 -3.570312 11.910156 -2.265625 10.890625 -1.296875 C 9.878906 -0.335938 8.503906 0.140625 6.765625 0.140625 C 5.015625 0.140625 3.617188 -0.335938 2.578125 -1.296875 C 1.546875 -2.265625 1.03125 -3.570312 1.03125 -5.21875 L 1.03125 -12.421875 L 4.1875 -12.421875 L 4.1875 -5.21875 C 4.1875 -4.382812 4.425781 -3.722656 4.90625 -3.234375 C 5.382812 -2.742188 6.007812 -2.5 6.78125 -2.5 C 7.539062 -2.5 8.144531 -2.738281 8.59375 -3.21875 C 9.050781 -3.707031 9.28125 -4.375 9.28125 -5.21875 L 9.28125 -12.421875 Z M 12.421875 -12.421875 "/></g></g></g><g fill="#ff3131" fill-opacity="1"><g transform="translate(137.633151, 304.430794)"><g><path d="M 7.0625 -12.53125 C 7.988281 -12.53125 8.894531 -12.335938 9.78125 -11.953125 C 10.675781 -11.578125 11.4375 -11.070312 12.0625 -10.4375 L 10.234375 -8.265625 C 9.835938 -8.765625 9.359375 -9.160156 8.796875 -9.453125 C 8.234375 -9.742188 7.675781 -9.890625 7.125 -9.890625 C 6.132812 -9.890625 5.304688 -9.539062 4.640625 -8.84375 C 3.984375 -8.15625 3.65625 -7.300781 3.65625 -6.28125 C 3.65625 -5.238281 3.984375 -4.367188 4.640625 -3.671875 C 5.304688 -2.972656 6.132812 -2.625 7.125 -2.625 C 7.644531 -2.625 8.179688 -2.753906 8.734375 -3.015625 C 9.296875 -3.273438 9.796875 -3.628906 10.234375 -4.078125 L 12.09375 -2.125 C 11.414062 -1.4375 10.617188 -0.882812 9.703125 -0.46875 C 8.785156 -0.0625 7.867188 0.140625 6.953125 0.140625 C 5.085938 0.140625 3.53125 -0.46875 2.28125 -1.6875 C 1.039062 -2.90625 0.421875 -4.425781 0.421875 -6.25 C 0.421875 -8.03125 1.050781 -9.519531 2.3125 -10.71875 C 3.582031 -11.925781 5.164062 -12.53125 7.0625 -12.53125 Z M 7.0625 -12.53125 "/></g></g></g><g fill="#ff3131" fill-opacity="1"><g transform="translate(150.26238, 304.430794)"><g><path d="M 9.5 -2.296875 L 4.0625 -2.296875 L 3.15625 0 L -0.09375 0 L 5.265625 -12.421875 L 8.515625 -12.421875 L 13.75 0 L 10.390625 0 Z M 8.578125 -4.6875 L 6.796875 -9.28125 L 4.984375 -4.6875 Z M 8.578125 -4.6875 "/></g></g></g><g fill="#ff3131" fill-opacity="1"><g transform="translate(164.275125, 304.430794)"><g><path d="M 7.0625 -12.53125 C 7.988281 -12.53125 8.894531 -12.335938 9.78125 -11.953125 C 10.675781 -11.578125 11.4375 -11.070312 12.0625 -10.4375 L 10.234375 -8.265625 C 9.835938 -8.765625 9.359375 -9.160156 8.796875 -9.453125 C 8.234375 -9.742188 7.675781 -9.890625 7.125 -9.890625 C 6.132812 -9.890625 5.304688 -9.539062 4.640625 -8.84375 C 3.984375 -8.15625 3.65625 -7.300781 3.65625 -6.28125 C 3.65625 -5.238281 3.984375 -4.367188 4.640625 -3.671875 C 5.304688 -2.972656 6.132812 -2.625 7.125 -2.625 C 7.644531 -2.625 8.179688 -2.753906 8.734375 -3.015625 C 9.296875 -3.273438 9.796875 -3.628906 10.234375 -4.078125 L 12.09375 -2.125 C 11.414062 -1.4375 10.617188 -0.882812 9.703125 -0.46875 C 8.785156 -0.0625 7.867188 0.140625 6.953125 0.140625 C 5.085938 0.140625 3.53125 -0.46875 2.28125 -1.6875 C 1.039062 -2.90625 0.421875 -4.425781 0.421875 -6.25 C 0.421875 -8.03125 1.050781 -9.519531 2.3125 -10.71875 C 3.582031 -11.925781 5.164062 -12.53125 7.0625 -12.53125 Z M 7.0625 -12.53125 "/></g></g></g><g fill="#ff3131" fill-opacity="1"><g transform="translate(176.904355, 304.430794)"><g><path d="M 4.40625 0 L 1.25 0 L 1.25 -12.421875 L 4.40625 -12.421875 Z M 4.40625 0 "/></g></g></g><g fill="#ff3131" fill-opacity="1"><g transform="translate(182.899823, 304.430794)"><g><path d="M 7.140625 -12.53125 C 9.066406 -12.53125 10.664062 -11.925781 11.9375 -10.71875 C 13.21875 -9.519531 13.859375 -8.023438 13.859375 -6.234375 C 13.859375 -4.421875 13.21875 -2.90625 11.9375 -1.6875 C 10.65625 -0.46875 9.054688 0.140625 7.140625 0.140625 C 5.222656 0.140625 3.625 -0.460938 2.34375 -1.671875 C 1.0625 -2.890625 0.421875 -4.410156 0.421875 -6.234375 C 0.421875 -8.046875 1.0625 -9.546875 2.34375 -10.734375 C 3.625 -11.929688 5.222656 -12.53125 7.140625 -12.53125 Z M 7.171875 -9.890625 C 6.203125 -9.890625 5.375 -9.535156 4.6875 -8.828125 C 4 -8.128906 3.65625 -7.257812 3.65625 -6.21875 C 3.65625 -5.175781 4 -4.296875 4.6875 -3.578125 C 5.382812 -2.859375 6.210938 -2.5 7.171875 -2.5 C 8.128906 -2.5 8.941406 -2.859375 9.609375 -3.578125 C 10.273438 -4.296875 10.609375 -5.175781 10.609375 -6.21875 C 10.609375 -7.257812 10.273438 -8.128906 9.609375 -8.828125 C 8.941406 -9.535156 8.128906 -9.890625 7.171875 -9.890625 Z M 7.171875 -9.890625 "/></g></g></g><g fill="#ff3131" fill-opacity="1"><g transform="translate(197.533379, 304.430794)"><g><path d="M 12.703125 0 L 9.921875 0 L 4.203125 -7.65625 L 4.203125 0 L 1.25 0 L 1.25 -12.421875 L 4.03125 -12.421875 L 9.765625 -4.75 L 9.765625 -12.421875 L 12.703125 -12.421875 Z M 12.703125 0 "/></g></g></g><g fill="#ff3131" fill-opacity="1"><g transform="translate(211.829918, 304.430794)"><g/></g></g><g fill="#ff3131" fill-opacity="1"><g transform="translate(216.299976, 304.430794)"><g><path d="M 10.453125 -9.9375 L 4.40625 -9.9375 L 4.40625 -7.0625 L 9.96875 -7.0625 L 9.96875 -4.578125 L 4.40625 -4.578125 L 4.40625 0 L 1.25 0 L 1.25 -12.421875 L 10.453125 -12.421875 Z M 10.453125 -9.9375 "/></g></g></g><g fill="#ff3131" fill-opacity="1"><g transform="translate(227.36832, 304.430794)"><g><path d="M 4.40625 0 L 1.25 0 L 1.25 -12.421875 L 4.40625 -12.421875 Z M 4.40625 0 "/></g></g></g><g fill="#ff3131" fill-opacity="1"><g transform="translate(233.363796, 304.430794)"><g><path d="M 6.015625 -12.5625 C 7.867188 -12.5625 9.503906 -12.101562 10.921875 -11.1875 L 9.734375 -8.71875 C 9.078125 -9.09375 8.375 -9.398438 7.625 -9.640625 C 6.882812 -9.890625 6.257812 -10.015625 5.75 -10.015625 C 4.84375 -10.015625 4.390625 -9.710938 4.390625 -9.109375 C 4.390625 -8.710938 4.613281 -8.394531 5.0625 -8.15625 C 5.507812 -7.925781 6.054688 -7.722656 6.703125 -7.546875 C 7.347656 -7.378906 7.992188 -7.171875 8.640625 -6.921875 C 9.285156 -6.679688 9.832031 -6.289062 10.28125 -5.75 C 10.726562 -5.207031 10.953125 -4.519531 10.953125 -3.6875 C 10.953125 -2.5 10.484375 -1.566406 9.546875 -0.890625 C 8.609375 -0.222656 7.421875 0.109375 5.984375 0.109375 C 4.953125 0.109375 3.929688 -0.0664062 2.921875 -0.421875 C 1.921875 -0.773438 1.046875 -1.257812 0.296875 -1.875 L 1.53125 -4.3125 C 2.15625 -3.769531 2.890625 -3.320312 3.734375 -2.96875 C 4.585938 -2.625 5.347656 -2.453125 6.015625 -2.453125 C 6.523438 -2.453125 6.921875 -2.539062 7.203125 -2.71875 C 7.484375 -2.90625 7.625 -3.175781 7.625 -3.53125 C 7.625 -3.875 7.460938 -4.160156 7.140625 -4.390625 C 6.816406 -4.617188 6.410156 -4.789062 5.921875 -4.90625 C 5.441406 -5.019531 4.914062 -5.171875 4.34375 -5.359375 C 3.78125 -5.546875 3.253906 -5.75 2.765625 -5.96875 C 2.285156 -6.195312 1.878906 -6.554688 1.546875 -7.046875 C 1.222656 -7.546875 1.0625 -8.140625 1.0625 -8.828125 C 1.0625 -9.960938 1.515625 -10.867188 2.421875 -11.546875 C 3.328125 -12.222656 4.523438 -12.5625 6.015625 -12.5625 Z M 6.015625 -12.5625 "/></g></g></g><g fill="#ff3131" fill-opacity="1"><g transform="translate(245.141634, 304.430794)"><g><path d="M 4.40625 0 L 1.25 0 L 1.25 -12.421875 L 4.40625 -12.421875 Z M 4.40625 0 "/></g></g></g><g fill="#ff3131" fill-opacity="1"><g transform="translate(251.137102, 304.430794)"><g><path d="M 7.0625 -12.53125 C 7.988281 -12.53125 8.894531 -12.335938 9.78125 -11.953125 C 10.675781 -11.578125 11.4375 -11.070312 12.0625 -10.4375 L 10.234375 -8.265625 C 9.835938 -8.765625 9.359375 -9.160156 8.796875 -9.453125 C 8.234375 -9.742188 7.675781 -9.890625 7.125 -9.890625 C 6.132812 -9.890625 5.304688 -9.539062 4.640625 -8.84375 C 3.984375 -8.15625 3.65625 -7.300781 3.65625 -6.28125 C 3.65625 -5.238281 3.984375 -4.367188 4.640625 -3.671875 C 5.304688 -2.972656 6.132812 -2.625 7.125 -2.625 C 7.644531 -2.625 8.179688 -2.753906 8.734375 -3.015625 C 9.296875 -3.273438 9.796875 -3.628906 10.234375 -4.078125 L 12.09375 -2.125 C 11.414062 -1.4375 10.617188 -0.882812 9.703125 -0.46875 C 8.785156 -0.0625 7.867188 0.140625 6.953125 0.140625 C 5.085938 0.140625 3.53125 -0.46875 2.28125 -1.6875 C 1.039062 -2.90625 0.421875 -4.425781 0.421875 -6.25 C 0.421875 -8.03125 1.050781 -9.519531 2.3125 -10.71875 C 3.582031 -11.925781 5.164062 -12.53125 7.0625 -12.53125 Z M 7.0625 -12.53125 "/></g></g></g><g fill="#ff3131" fill-opacity="1"><g transform="translate(263.766332, 304.430794)"><g><path d="M 9.5 -2.296875 L 4.0625 -2.296875 L 3.15625 0 L -0.09375 0 L 5.265625 -12.421875 L 8.515625 -12.421875 L 13.75 0 L 10.390625 0 Z M 8.578125 -4.6875 L 6.796875 -9.28125 L 4.984375 -4.6875 Z M 8.578125 -4.6875 "/></g></g></g><g fill="#000000" fill-opacity="1"><g transform="translate(136.099916, 326.72532)"><g><path d="M 1.46875 -11.203125 L 6.0625 -11.203125 C 7.738281 -11.203125 9.125 -10.671875 10.21875 -9.609375 C 11.3125 -8.554688 11.859375 -7.21875 11.859375 -5.59375 C 11.859375 -3.976562 11.304688 -2.640625 10.203125 -1.578125 C 9.109375 -0.523438 7.710938 0 6.015625 0 L 1.46875 0 Z M 3.359375 -9.5 L 3.359375 -1.703125 L 6.109375 -1.703125 C 7.210938 -1.703125 8.128906 -2.066406 8.859375 -2.796875 C 9.585938 -3.523438 9.953125 -4.453125 9.953125 -5.578125 C 9.953125 -6.710938 9.578125 -7.648438 8.828125 -8.390625 C 8.078125 -9.128906 7.144531 -9.5 6.03125 -9.5 Z M 3.359375 -9.5 "/></g></g></g><g fill="#000000" fill-opacity="1"><g transform="translate(148.496934, 326.72532)"><g><path d="M 3.359375 0 L 1.46875 0 L 1.46875 -11.203125 L 3.359375 -11.203125 Z M 3.359375 0 "/></g></g></g><g fill="#000000" fill-opacity="1"><g transform="translate(153.327771, 326.72532)"><g><path d="M 9.46875 -9.5 L 3.359375 -9.5 L 3.359375 -6.484375 L 8.828125 -6.484375 L 8.828125 -4.78125 L 3.359375 -4.78125 L 3.359375 -1.703125 L 9.65625 -1.703125 L 9.65625 0 L 1.46875 0 L 1.46875 -11.203125 L 9.46875 -11.203125 Z M 9.46875 -9.5 "/></g></g></g><g fill="#000000" fill-opacity="1"><g transform="translate(163.821247, 326.72532)"><g><path d="M 9.140625 -5.5 L 10.78125 -5.5 L 10.78125 -1.375 C 10.207031 -0.9375 9.523438 -0.582031 8.734375 -0.3125 C 7.953125 -0.0507812 7.1875 0.078125 6.4375 0.078125 C 4.78125 0.078125 3.382812 -0.46875 2.25 -1.5625 C 1.113281 -2.65625 0.546875 -4 0.546875 -5.59375 C 0.546875 -7.195312 1.117188 -8.539062 2.265625 -9.625 C 3.421875 -10.707031 4.847656 -11.25 6.546875 -11.25 C 7.335938 -11.25 8.113281 -11.109375 8.875 -10.828125 C 9.632812 -10.546875 10.289062 -10.164062 10.84375 -9.6875 L 9.78125 -8.28125 C 8.863281 -9.132812 7.785156 -9.5625 6.546875 -9.5625 C 5.398438 -9.5625 4.429688 -9.175781 3.640625 -8.40625 C 2.859375 -7.644531 2.46875 -6.707031 2.46875 -5.59375 C 2.46875 -4.476562 2.863281 -3.535156 3.65625 -2.765625 C 4.445312 -1.992188 5.414062 -1.609375 6.5625 -1.609375 C 7.425781 -1.609375 8.285156 -1.867188 9.140625 -2.390625 Z M 9.140625 -5.5 "/></g></g></g><g fill="#000000" fill-opacity="1"><g transform="translate(175.802364, 326.72532)"><g><path d="M 9.46875 -9.5 L 3.359375 -9.5 L 3.359375 -6.484375 L 8.828125 -6.484375 L 8.828125 -4.78125 L 3.359375 -4.78125 L 3.359375 -1.703125 L 9.65625 -1.703125 L 9.65625 0 L 1.46875 0 L 1.46875 -11.203125 L 9.46875 -11.203125 Z M 9.46875 -9.5 "/></g></g></g><g fill="#000000" fill-opacity="1"><g transform="translate(186.29584, 326.72532)"><g><path d="M 1.46875 -11.203125 L 5.9375 -11.203125 C 7.34375 -11.203125 8.429688 -10.867188 9.203125 -10.203125 C 9.984375 -9.535156 10.375 -8.59375 10.375 -7.375 C 10.375 -6.101562 9.984375 -5.117188 9.203125 -4.421875 C 8.429688 -3.722656 7.34375 -3.375 5.9375 -3.375 L 3.359375 -3.375 L 3.359375 0 L 1.46875 0 Z M 3.359375 -9.5 L 3.359375 -5.078125 L 5.859375 -5.078125 C 7.660156 -5.078125 8.5625 -5.828125 8.5625 -7.328125 C 8.5625 -8.773438 7.660156 -9.5 5.859375 -9.5 Z M 3.359375 -9.5 "/></g></g></g><g fill="#000000" fill-opacity="1"><g transform="translate(197.06125, 326.72532)"><g/></g></g><g fill="#000000" fill-opacity="1"><g transform="translate(201.188264, 326.72532)"><g><path d="M 2.265625 -10.515625 C 2.941406 -11.023438 3.851562 -11.28125 5 -11.28125 C 6.15625 -11.28125 7.070312 -11.019531 7.75 -10.5 C 8.425781 -9.988281 8.765625 -9.285156 8.765625 -8.390625 C 8.765625 -7.847656 8.617188 -7.367188 8.328125 -6.953125 C 8.035156 -6.546875 7.628906 -6.222656 7.109375 -5.984375 C 7.796875 -5.753906 8.335938 -5.390625 8.734375 -4.890625 C 9.128906 -4.390625 9.328125 -3.804688 9.328125 -3.140625 C 9.328125 -2.140625 8.941406 -1.351562 8.171875 -0.78125 C 7.398438 -0.207031 6.347656 0.078125 5.015625 0.078125 C 3.691406 0.078125 2.640625 -0.203125 1.859375 -0.765625 C 1.085938 -1.335938 0.703125 -2.117188 0.703125 -3.109375 C 0.703125 -3.785156 0.90625 -4.375 1.3125 -4.875 C 1.726562 -5.382812 2.296875 -5.753906 3.015625 -5.984375 C 1.847656 -6.515625 1.265625 -7.335938 1.265625 -8.453125 C 1.265625 -9.328125 1.597656 -10.015625 2.265625 -10.515625 Z M 5.015625 -9.921875 C 4.335938 -9.921875 3.804688 -9.773438 3.421875 -9.484375 C 3.046875 -9.203125 2.859375 -8.796875 2.859375 -8.265625 C 2.859375 -7.742188 3.046875 -7.34375 3.421875 -7.0625 C 3.804688 -6.78125 4.335938 -6.640625 5.015625 -6.640625 C 5.691406 -6.640625 6.21875 -6.78125 6.59375 -7.0625 C 6.96875 -7.34375 7.15625 -7.742188 7.15625 -8.265625 C 7.15625 -8.796875 6.96875 -9.203125 6.59375 -9.484375 C 6.21875 -9.773438 5.691406 -9.921875 5.015625 -9.921875 Z M 5.015625 -5.171875 C 4.222656 -5.171875 3.601562 -5.003906 3.15625 -4.671875 C 2.71875 -4.347656 2.5 -3.894531 2.5 -3.3125 C 2.5 -2.707031 2.71875 -2.238281 3.15625 -1.90625 C 3.59375 -1.570312 4.207031 -1.40625 5 -1.40625 C 5.800781 -1.40625 6.421875 -1.570312 6.859375 -1.90625 C 7.304688 -2.238281 7.53125 -2.707031 7.53125 -3.3125 C 7.53125 -3.894531 7.304688 -4.347656 6.859375 -4.671875 C 6.421875 -5.003906 5.804688 -5.171875 5.015625 -5.171875 Z M 5.015625 -5.171875 "/></g></g></g><g fill="#000000" fill-opacity="1"><g transform="translate(211.201855, 326.72532)"><g><path d="M 4.1875 -6.546875 L 4.765625 -6.484375 C 5.722656 -6.398438 6.488281 -6.09375 7.0625 -5.5625 C 7.632812 -5.03125 7.921875 -4.332031 7.921875 -3.46875 C 7.921875 -2.414062 7.550781 -1.5625 6.8125 -0.90625 C 6.070312 -0.25 5.082031 0.078125 3.84375 0.078125 C 3.15625 0.078125 2.472656 -0.03125 1.796875 -0.25 C 1.117188 -0.46875 0.539062 -0.765625 0.0625 -1.140625 L 0.84375 -2.671875 C 1.675781 -1.890625 2.632812 -1.5 3.71875 -1.5 C 4.445312 -1.5 5.019531 -1.671875 5.4375 -2.015625 C 5.851562 -2.367188 6.0625 -2.835938 6.0625 -3.421875 C 6.0625 -4.015625 5.851562 -4.46875 5.4375 -4.78125 C 5.03125 -5.101562 4.453125 -5.265625 3.703125 -5.265625 L 2.140625 -5.265625 L 2.140625 -6.375 L 5.0625 -9.5 L 0.578125 -9.5 L 0.578125 -11.1875 L 7.390625 -11.1875 L 7.390625 -10 Z M 4.1875 -6.546875 "/></g></g></g><g fill="#000000" fill-opacity="1"><g transform="translate(219.823788, 326.72532)"><g><path d="M 5.59375 -11.28125 C 6.820312 -11.28125 7.9375 -11 8.9375 -10.4375 L 8.203125 -9.015625 C 7.484375 -9.484375 6.660156 -9.71875 5.734375 -9.71875 C 4.671875 -9.71875 3.875 -9.351562 3.34375 -8.625 C 2.820312 -7.894531 2.578125 -6.90625 2.609375 -5.65625 C 3.203125 -6.71875 4.21875 -7.25 5.65625 -7.25 C 6.769531 -7.25 7.648438 -6.925781 8.296875 -6.28125 C 8.941406 -5.632812 9.265625 -4.769531 9.265625 -3.6875 C 9.265625 -2.53125 8.90625 -1.613281 8.1875 -0.9375 C 7.476562 -0.257812 6.523438 0.078125 5.328125 0.078125 C 3.910156 0.078125 2.796875 -0.398438 1.984375 -1.359375 C 1.171875 -2.316406 0.765625 -3.65625 0.765625 -5.375 C 0.765625 -7.164062 1.203125 -8.597656 2.078125 -9.671875 C 2.953125 -10.742188 4.125 -11.28125 5.59375 -11.28125 Z M 5.3125 -5.765625 C 4.570312 -5.765625 3.984375 -5.554688 3.546875 -5.140625 C 3.109375 -4.734375 2.894531 -4.226562 2.90625 -3.625 C 2.894531 -3.082031 3.085938 -2.597656 3.484375 -2.171875 C 3.890625 -1.753906 4.472656 -1.546875 5.234375 -1.546875 C 5.921875 -1.546875 6.46875 -1.734375 6.875 -2.109375 C 7.289062 -2.492188 7.5 -3.023438 7.5 -3.703125 C 7.5 -4.335938 7.304688 -4.835938 6.921875 -5.203125 C 6.535156 -5.578125 6 -5.765625 5.3125 -5.765625 Z M 5.3125 -5.765625 "/></g></g></g><g fill="#000000" fill-opacity="1"><g transform="translate(229.661426, 326.72532)"><g><path d="M 8.09375 -9.5 L 3.015625 -9.5 L 3.015625 -7.09375 L 4.546875 -7.109375 C 5.753906 -7.109375 6.722656 -6.785156 7.453125 -6.140625 C 8.179688 -5.503906 8.546875 -4.691406 8.546875 -3.703125 C 8.546875 -2.554688 8.164062 -1.640625 7.40625 -0.953125 C 6.65625 -0.273438 5.65625 0.0625 4.40625 0.0625 C 3.738281 0.0625 3.046875 -0.0507812 2.328125 -0.28125 C 1.609375 -0.519531 0.972656 -0.832031 0.421875 -1.21875 L 1.171875 -2.75 C 2.109375 -1.957031 3.113281 -1.5625 4.1875 -1.5625 C 4.914062 -1.5625 5.488281 -1.738281 5.90625 -2.09375 C 6.320312 -2.457031 6.53125 -2.953125 6.53125 -3.578125 C 6.53125 -4.148438 6.320312 -4.597656 5.90625 -4.921875 C 5.488281 -5.253906 4.921875 -5.421875 4.203125 -5.421875 C 3.148438 -5.421875 2.171875 -5.375 1.265625 -5.28125 L 1.265625 -11.203125 L 8.078125 -11.203125 Z M 8.09375 -9.5 "/></g></g></g></svg>